<?xml version="1.0" encoding="UTF-8"?>
<svg version="1.1" xmlns="http://www.w3.org/2000/svg" width="1920" height="420">
<path d="M0 0 C2.5602477 2.88762619 3.41529989 4.95447534 3.80859375 8.7734375 C3.91623047 9.6809375 4.02386719 10.5884375 4.13476562 11.5234375 C4.3357251 13.4163461 4.53366854 15.30957746 4.72851562 17.203125 C5.41129575 22.90777316 6.29623692 26.54974203 10 31 C13.40761731 33.585089 16.84158258 33.29702982 21 33 C23.35369807 32.11935073 23.35369807 32.11935073 25 31 C24.505 30.46375 24.01 29.9275 23.5 29.375 C21.54619287 26.28147204 21.48481309 24.60630834 22 21 C23.88799091 17.80493847 25.38403183 16.3151465 28.6875 14.625 C35.21519204 13.39335999 41.43422162 14.24914935 47 18 C55.2073866 24.97719666 58.70410175 35.52702639 60 46 C60.8381123 62.34318993 59.18685318 77.09393415 52 92 C51.43539062 93.175625 51.43539062 93.175625 50.859375 94.375 C49.92984448 96.26180822 48.96723345 98.13223885 48 100 C47.33145738 101.33239371 46.66432441 102.66549811 46 104 C42.17043634 102.48538606 40.30792726 100.22111436 37.8125 97 C37.11769531 96.113125 36.42289062 95.22625 35.70703125 94.3125 C34 92 34 92 33 90 C33.33194996 96.74964922 34.90648176 101.58172859 37.94140625 107.6171875 C39 110 39 110 39 113 C33.20282859 111.91223053 29.21624448 108.02134014 25.78759766 103.34716797 C23.04955489 99.3184726 20.52249171 95.16577469 18 91 C17.34 90.01 16.68 89.02 16 88 C16.46952713 94.17290074 17.88869301 98.6653738 20.75 104.125 C21.25273437 105.14013672 21.25273437 105.14013672 21.765625 106.17578125 C23.49716774 109.56671912 25.26428611 112.41770938 27.828125 115.2421875 C30 118 30 118 30.125 120.11328125 C25.83567451 127.30683754 15.48359082 132.06056948 8.3125 135.9375 C7.62478516 136.31479248 6.93707031 136.69208496 6.22851562 137.08081055 C0.55676241 140.04148192 -5.48050529 142.6964206 -11.94140625 141.41796875 C-12.80636719 141.01191406 -13.67132813 140.60585938 -14.5625 140.1875 C-15.57054687 139.71441406 -16.57859375 139.24132812 -17.6171875 138.75390625 C-27.6363253 133.55922626 -37.40849541 128.42210536 -46 121 C-44.51027252 117.83067782 -42.70713083 115.02543262 -40.75 112.125 C-36.16571521 104.97466901 -30.32931586 95.73525192 -31 87 C-31.42410156 87.76183594 -31.84820312 88.52367187 -32.28515625 89.30859375 C-42.69266481 107.63038354 -42.69266481 107.63038354 -52 113 C-53.485 112.505 -53.485 112.505 -55 112 C-54.36771484 110.62328125 -54.36771484 110.62328125 -53.72265625 109.21875 C-53.1687117 107.97941643 -52.61535792 106.73981869 -52.0625 105.5 C-51.78470703 104.89929688 -51.50691406 104.29859375 -51.22070312 103.6796875 C-49.19736482 99.09670435 -48.43624615 94.99198124 -48 90 C-49.03060547 91.39025391 -49.03060547 91.39025391 -50.08203125 92.80859375 C-50.99181356 94.01851043 -51.90199041 95.22813052 -52.8125 96.4375 C-53.49022461 97.35499023 -53.49022461 97.35499023 -54.18164062 98.29101562 C-57.66015625 102.88671875 -57.66015625 102.88671875 -61 104 C-72.58938165 83.15599078 -79.25009103 61.25501941 -73.8125 37.1875 C-71.13384952 28.45987826 -66.95799033 21.96639226 -59.8125 16.25 C-54.94715608 14.08762493 -49.81825669 13.12601326 -44.64453125 14.73046875 C-41.00245625 16.46194703 -39.28655446 17.57016831 -37 21 C-36.62521757 24.52295483 -36.58872755 26.34881863 -38.5 29.375 C-38.995 29.91125 -39.49 30.4475 -40 31 C-36.77252945 33.15164703 -35.79494361 33.27245079 -32.0625 33.25 C-31.20785156 33.25515625 -30.35320312 33.2603125 -29.47265625 33.265625 C-26.78210061 32.97659217 -25.22129297 32.54377442 -23 31 C-20.35479825 26.15375352 -19.25275856 20.44418765 -20 15 C-21.22435155 12.35762154 -21.22435155 12.35762154 -24 11 C-27.36060684 10.67868806 -30.63562234 10.76885955 -34 11 C-34.43195891 7.28515335 -34.31515192 5.4839833 -32.25 2.3125 C-23.8253675 -3.68195005 -8.88085949 -6.21660165 0 0 Z " fill="#00AEEF" transform="translate(207,136)"/>
<path d="M0 0 C10.23 0 20.46 0 31 0 C30.01 2.97 29.02 5.94 28 9 C25.47302319 19.4604237 25.1756097 30.42484696 24.4375 41.125 C24.18837313 44.64859423 23.93603069 48.17195414 23.68359375 51.6953125 C23.62460403 52.53194427 23.56561432 53.36857605 23.50483704 54.2305603 C23.2091176 58.36657607 22.86979364 62.48724449 22.4140625 66.609375 C21.89700403 71.45261334 21.88792076 76.25860731 21.9375 81.125 C21.94201172 81.98609375 21.94652344 82.8471875 21.95117188 83.734375 C21.96277506 85.82294785 21.9807016 87.91148407 22 90 C31.0598842 93.0199614 43.32952563 90.95363358 52.140625 87.91796875 C56.06683818 85.28440226 57.47190313 82.31312743 59.5 78.125 C59.91596436 77.29911377 60.33192871 76.47322754 60.76049805 75.62231445 C62.19349085 72.75762944 63.59647426 69.87922755 65 67 C66.09996648 64.78240626 67.2002402 62.5649649 68.30078125 60.34765625 C71.95211394 52.93791517 75.50910662 45.48661654 79 38 C79.31376587 37.32710937 79.62753174 36.65421875 79.95080566 35.9609375 C81.85043782 31.87335987 83.71994942 27.77364673 85.55551147 23.65689087 C86.13744965 22.35748199 86.72556816 21.06082104 87.32022095 19.7671814 C88.14761964 17.96134506 88.94740035 16.14293322 89.74609375 14.32421875 C90.20685303 13.29385498 90.6676123 12.26349121 91.14233398 11.2019043 C92.41619581 7.25024517 92.41619581 7.25024517 91 0 C99.25 0 107.5 0 116 0 C119.02170961 9.33982971 121.78039146 18.70318615 124.3125 28.1875 C124.75360107 29.83733887 124.75360107 29.83733887 125.20361328 31.52050781 C125.8193741 33.82623754 126.43476341 36.13206651 127.04980469 38.43798828 C127.36336914 39.61345215 127.67693359 40.78891602 128 42 C128.47808105 43.79219971 128.47808105 43.79219971 128.96582031 45.62060547 C132.42820298 58.54671901 135.98085196 71.44123065 140.0625 84.1875 C140.35439209 85.13641113 140.64628418 86.08532227 140.94702148 87.06298828 C142.95699491 93.15556699 145.72188404 97.88980715 149.60717773 102.99731445 C151 105 151 105 151 107 C146.0638629 107.79821104 141.32768173 108.16214519 136.3125 108.1875 C135.02988281 108.20167969 133.74726562 108.21585937 132.42578125 108.23046875 C129.22282768 108.01499069 127.56313636 107.85871782 125 106 C118.50979191 97.6184736 116.67817824 85.04975636 114 75 C112.13021484 75.2165625 112.13021484 75.2165625 110.22265625 75.4375 C99.09381529 76.66988843 88.19318512 77.260981 77 77 C76.896875 77.68835938 76.79375 78.37671875 76.6875 79.0859375 C75.60126416 83.69009625 73.40178435 87.78086654 71.375 92.0390625 C69.45955948 97.04315616 69.45955948 97.04315616 69 107 C43.92 107 18.84 107 -7 107 C-6.34 105.02 -5.68 103.04 -5 101 C1.66277436 73.71234964 2.05735923 43.62469426 2.25 15.625 C2.25926514 14.82473389 2.26853027 14.02446777 2.27807617 13.19995117 C2.25021697 8.22517237 1.42650584 4.99277044 0 0 Z M100 28 C99.53158691 29.07314453 99.53158691 29.07314453 99.05371094 30.16796875 C97.62131139 33.44626587 96.1856816 36.72313895 94.75 40 C94.25886719 41.12535156 93.76773438 42.25070313 93.26171875 43.41015625 C92.77832031 44.51230469 92.29492188 45.61445313 91.796875 46.75 C91.35698242 47.75546875 90.91708984 48.7609375 90.46386719 49.796875 C88.73686257 53.57577769 86.85809852 57.28380297 85 61 C93.58 61 102.16 61 111 61 C109.76091809 56.61987096 108.51797358 52.24125099 107.26464844 47.86523438 C106.83943085 46.37599905 106.41656467 44.88609026 105.99609375 43.39550781 C105.39158015 41.25404689 104.77867332 39.11514413 104.1640625 36.9765625 C103.97752106 36.30879791 103.79097961 35.64103333 103.5987854 34.95303345 C102.74268356 32.0024823 102.20877217 30.20877217 100 28 Z " fill="#00AEEF" transform="translate(680,151)"/>
<path d="M0 0 C7.52556829 -0.07636215 15.05103582 -0.12873076 22.5769043 -0.16479492 C25.13455947 -0.1798371 27.69218904 -0.20027589 30.24975586 -0.22631836 C33.93609963 -0.26290204 37.62210091 -0.27977268 41.30859375 -0.29296875 C42.44332626 -0.30845261 43.57805878 -0.32393646 44.74717712 -0.33988953 C54.05095626 -0.34184074 61.71272241 0.93981748 68.62890625 7.47265625 C72.42346099 11.69963888 73.05247421 17.48146274 73 23 C71.75151035 31.01726195 68.43499966 36.74601515 61.90234375 41.5390625 C56.57559358 45 56.57559358 45 54 45 C54 45.66 54 46.32 54 47 C54.78375 47.04125 55.5675 47.0825 56.375 47.125 C63.61128069 48.87168844 70.14404657 52.81549763 74.10546875 59.2265625 C77.77627066 66.50404751 78.10798289 74.67741004 76.0625 82.5 C72.95360226 90.70807115 65.75553729 97.61956221 58.06787109 101.65014648 C44.09330552 107.79891085 29.40421706 107.50365289 14.4375 107.25 C12.34702256 107.22987897 10.25652615 107.21163824 8.16601562 107.1953125 C3.110197 107.15181939 -1.94468385 107.08310985 -7 107 C-6.80664062 106.47792969 -6.61328125 105.95585937 -6.4140625 105.41796875 C-2.96708377 95.67428135 -1.73091532 85.83179791 -0.9296875 75.5703125 C-0.8434613 74.50889038 -0.75723511 73.44746826 -0.668396 72.35388184 C-0.39564558 68.94484387 -0.133758 65.53512711 0.125 62.125 C0.21404602 60.9660321 0.30309204 59.80706421 0.39483643 58.61297607 C1.43213972 44.95495237 2.37317381 31.32688383 2.375 17.625 C2.37717529 15.92947998 2.37717529 15.92947998 2.37939453 14.19970703 C2.30629281 8.98812949 1.80354981 4.93929776 0 0 Z M26 14 C24.2729614 23.00407504 23.47449901 31.85965063 23 41 C30.73270289 41.52923442 37.21578605 41.00940932 44 37 C47.5681428 33.78457017 49.82042784 30.55629209 50.375 25.75 C49.89218815 20.92188153 48.55387975 19.25142189 45 16 C38.94721943 13.28242505 32.50804758 13.80764391 26 14 Z M22 55 C21.32128291 63.78696233 20.86466203 72.56204281 20.75 81.375 C20.72873047 82.20104736 20.70746094 83.02709473 20.68554688 83.87817383 C20.63461626 86.4574496 20.63461626 86.4574496 21 90 C26.07636231 93.38424154 31.82122383 92.46462575 37.69921875 91.60546875 C44.40708964 90.01324825 48.22530749 86.72552748 52 81 C53.80314097 75.5905771 53.47908865 70.6235782 51.875 65.1875 C48.61134193 59.63928128 44.01130235 57.6882506 38 56 C35.21259272 55.64543877 32.43116087 55.49678637 29.625 55.375 C28.88894531 55.33632812 28.15289062 55.29765625 27.39453125 55.2578125 C25.59672594 55.16442002 23.79839892 55.0811629 22 55 Z " fill="#00AEEF" transform="translate(310,151)"/>
<path d="M0 0 C7.09831811 -0.07640051 14.19652918 -0.12874659 21.29516602 -0.16479492 C23.7073157 -0.17983145 26.11943828 -0.20026599 28.53149414 -0.22631836 C32.00934564 -0.26292732 35.48683394 -0.27977829 38.96484375 -0.29296875 C40.03395493 -0.30845261 41.1030661 -0.32393646 42.20457458 -0.33988953 C51.01971442 -0.34184708 59.13099494 1.08946076 66 7 C70.75677677 14.53156322 72.15735925 21.85779421 70.50390625 30.6328125 C67.94676932 40.08121677 63.21644971 45.78773666 55 51 C52.36875439 52.44785747 49.72691618 53.73393177 47 55 C47.51046875 55.6084375 48.0209375 56.216875 48.546875 56.84375 C54.26477396 63.73767073 59.66413968 70.82466979 65.015625 78.00390625 C69.27781636 83.72111209 73.60942742 89.38064197 78 95 C78.40911621 95.52561523 78.81823242 96.05123047 79.23974609 96.59277344 C80.44264566 98.13131087 81.6586269 99.65959252 82.875 101.1875 C83.57367187 102.06792969 84.27234375 102.94835937 84.9921875 103.85546875 C86.92631373 105.92129618 88.39844174 106.95587684 91 108 C91 108.66 91 109.32 91 110 C86.80088549 112.09955726 81.30106096 111.22936921 76.6875 111.25 C75.54603516 111.270625 74.40457031 111.29125 73.22851562 111.3125 C72.12572266 111.31765625 71.02292969 111.3228125 69.88671875 111.328125 C68.87826904 111.3374707 67.86981934 111.34681641 66.83081055 111.35644531 C62.84030554 110.85397551 60.23233778 109.36087769 57.53710938 106.38452148 C57.14330078 105.80259033 56.74949219 105.22065918 56.34375 104.62109375 C55.88524658 103.9561792 55.42674316 103.29126465 54.9543457 102.60620117 C54.23444458 101.53269409 54.23444458 101.53269409 53.5 100.4375 C52.44245367 98.90032053 51.38382254 97.36388694 50.32421875 95.828125 C49.77942871 95.03341797 49.23463867 94.23871094 48.67333984 93.41992188 C45.94154472 89.46930132 43.1299495 85.57729639 40.3125 81.6875 C39.77069092 80.93919922 39.22888184 80.19089844 38.6706543 79.41992188 C37.11667969 77.27781023 35.5594386 75.13813652 34 73 C33.53335938 72.35998047 33.06671875 71.71996094 32.5859375 71.06054688 C31.33363985 69.34870725 30.07490675 67.64189296 28.8125 65.9375 C28.11769531 64.99777344 27.42289063 64.05804688 26.70703125 63.08984375 C25.16649614 60.91249836 25.16649614 60.91249836 23 60 C20.89488104 69.60571089 20.89317363 79.57723352 20.8125 89.375 C20.79952881 90.20652588 20.78655762 91.03805176 20.77319336 91.89477539 C20.77198486 92.70035889 20.77077637 93.50594238 20.76953125 94.3359375 C20.76336792 95.39627197 20.76336792 95.39627197 20.75708008 96.47802734 C21.10090928 100.04763099 22.13023706 103.52094824 23 107 C13.1 107 3.2 107 -7 107 C-6.401875 104.89625 -5.80375 102.7925 -5.1875 100.625 C-0.56249964 82.698642 0.19766937 63.97553223 1.1875 45.5625 C1.2518222 44.38781158 1.2518222 44.38781158 1.31744385 43.18939209 C1.7870558 34.41002078 2.09252255 25.63173695 2.17578125 16.83984375 C2.18949265 16.07241348 2.20320404 15.30498322 2.21733093 14.51429749 C2.23246311 9.36071493 1.42191365 4.95651508 0 0 Z M25 15 C24.77150096 16.79119215 24.60481725 18.59035043 24.46484375 20.390625 C24.37783203 21.49277344 24.29082031 22.59492188 24.20117188 23.73046875 C24.11416016 24.89191406 24.02714844 26.05335938 23.9375 27.25 C23.84662109 28.39597656 23.75574219 29.54195312 23.66210938 30.72265625 C23.29271274 35.49426089 22.94346598 40.21162317 23 45 C30.8854162 45.66325931 36.68289482 45.04317752 43 40 C47.19868376 35.34771883 48.42351423 30.41096706 48.34375 24.2890625 C47.73801338 20.25540726 46.03216157 18.70257879 43 16 C39.21426701 14.01699701 28.45604439 11.54395561 25 15 Z " fill="#00AEEF" transform="translate(501,151)"/>
<path d="M0 0 C0.38095093 2.91766357 0.38095093 2.91766357 0.38818359 6.70605469 C0.39344055 7.39586929 0.39869751 8.0856839 0.40411377 8.79640198 C0.41736547 11.08845387 0.4085465 13.37981536 0.3984375 15.671875 C0.40045953 17.27215711 0.40337204 18.87243832 0.40713501 20.47271729 C0.41156759 23.83883372 0.40510775 27.20471199 0.39111328 30.57080078 C0.37418579 34.84730862 0.38375057 39.12324476 0.40183067 43.39973068 C0.4127857 46.71329882 0.40916638 50.02673659 0.4014473 53.34030914 C0.39946877 54.91407593 0.40182036 56.4878552 0.40888596 58.06160736 C0.5005632 84.26740475 0.5005632 84.26740475 -7.39453125 93.390625 C-15.35216982 101.36762522 -24.18121059 105.18293174 -35.44384766 105.32910156 C-36.18425293 105.32362305 -36.9246582 105.31814453 -37.6875 105.3125 C-38.46915527 105.30831055 -39.25081055 105.30412109 -40.05615234 105.29980469 C-50.17471685 105.10509741 -59.17953341 103.01555944 -68 98 C-67.32599282 94.08885974 -65.45743967 91.12880818 -63.4375 87.75 C-62.79683594 86.67234375 -62.15617187 85.5946875 -61.49609375 84.484375 C-61.00238281 83.66453125 -60.50867187 82.8446875 -60 82 C-57.23231157 82.6424991 -54.65436083 83.49456029 -52 84.5 C-45.12716743 86.78716998 -37.52921747 88.17880312 -30.5 85.875 C-26.35291284 83.65334617 -24.05636145 81.55287352 -22.25 77.1875 C-21.86095029 73.78331508 -21.94291316 70.42521054 -22 67 C-22.90492187 67.41572266 -22.90492187 67.41572266 -23.828125 67.83984375 C-25.02695313 68.38318359 -25.02695313 68.38318359 -26.25 68.9375 C-27.03890625 69.29714844 -27.8278125 69.65679687 -28.640625 70.02734375 C-37.40452179 73.64027471 -46.41426983 72.56053052 -55.140625 69.31640625 C-64.41119788 65.0483966 -70.22236498 58.38018965 -73.80859375 48.8515625 C-76.8892137 37.42140019 -75.8945654 24.52006907 -70.3125 14.07421875 C-64.2630963 4.51400041 -56.17439532 -1.72577934 -45.3125 -4.875 C-32.34307577 -7.62359625 -11.47880386 -7.65253591 0 0 Z M-48.8125 18.625 C-53.33232801 24.29288501 -55.35639187 29.78987837 -55 37.0625 C-54.1361548 43.15688046 -51.39188106 47.75308143 -46.9375 51.9375 C-42.54821253 54.34452861 -37.93805985 54.51688103 -33 54 C-28.39246358 52.46415453 -25.03171362 50.84794421 -22 47 C-20.73226416 43.39274837 -20.88627755 39.83849882 -20.90234375 36.046875 C-20.90446617 35.05654266 -20.90446617 35.05654266 -20.90663147 34.04620361 C-20.91220755 31.94742206 -20.92475553 29.84874905 -20.9375 27.75 C-20.9425181 26.32291821 -20.94708046 24.89583475 -20.95117188 23.46875 C-20.96216912 19.97913168 -20.9794172 16.48957644 -21 13 C-30.73298908 9.75567031 -41.66829186 11.16888256 -48.8125 18.625 Z " fill="#00AEEF" transform="translate(1338,186)"/>
<path d="M0 0 C23.1 0 46.2 0 70 0 C70 6.27 70 12.54 70 19 C54.16 19.33 38.32 19.66 22 20 C22 26.93 22 33.86 22 41 C33.55 41.33 45.1 41.66 57 42 C57 48.27 57 54.54 57 61 C39.675 61.495 39.675 61.495 22 62 C22 69.92 22 77.84 22 86 C39.16 86.33 56.32 86.66 74 87 C74 93.27 74 99.54 74 106 C73 107 73 107 70.10838318 107.12025452 C68.81376663 107.11803391 67.51915009 107.11581329 66.18530273 107.11352539 C65.0997376 107.11370619 65.0997376 107.11370619 63.99224186 107.11389065 C61.63932837 107.11314163 59.28649315 107.10551393 56.93359375 107.09765625 C55.48506712 107.0961868 54.03653996 107.09516611 52.5880127 107.09460449 C47.20450039 107.08935201 41.82099943 107.07539092 36.4375 107.0625 C24.413125 107.041875 12.38875 107.02125 0 107 C0 71.69 0 36.38 0 0 Z " fill="#00AEEF" transform="translate(1111,151)"/>
<path d="M0 0 C6.6 0 13.2 0 20 0 C20.33 11.22 20.66 22.44 21 34 C23.97 32.68 26.94 31.36 30 30 C40.4591299 27.2138785 50.16327513 29.07925842 59.4453125 34.40234375 C67.18529906 39.76785986 72.33409438 47.8893144 74.4375 57.0625 C76.32730939 70.2281721 74.71298626 82.32386952 67.08203125 93.45703125 C60.10720745 101.9759999 50.93563291 107.61031743 40 109 C26.37208075 109.84925204 12.78633913 109.11453565 0 104 C0 69.68 0 35.36 0 0 Z M23.6875 51.75 C20.06805681 56.57592425 19.75261939 62.16968092 19.8046875 68.02734375 C19.81113281 69.31318359 19.81757812 70.59902344 19.82421875 71.92382812 C19.84092399 73.26172154 19.85785381 74.59961217 19.875 75.9375 C19.88504678 77.30272783 19.89416964 78.6679628 19.90234375 80.03320312 C19.92582395 83.35565199 19.95866641 86.67773321 20 90 C26.55246546 92.18415515 36.17470591 92.3455619 42.5625 89.4375 C48.08486616 86.04467373 52.02812881 81.15872098 54 75 C54.69604712 67.94009349 55.01116853 60.14952666 51 54 C46.84249151 49.51814688 43.49263952 47.16617597 37.25 46.75 C31.96785639 46.82767858 27.8964319 48.56486234 23.6875 51.75 Z " fill="#00AEEF" transform="translate(1643,151)"/>
<path d="M0 0 C8.25 0 16.5 0 25 0 C25.886875 3.485625 26.77375 6.97125 27.6875 10.5625 C30.89660812 22.97979671 34.218709 35.36717041 37.59951782 47.73873901 C38.1491246 49.75472445 38.69560092 51.77156649 39.23861694 53.78933716 C42.17558285 64.68832011 45.35006134 75.44497194 49.16015625 86.07421875 C49.48269882 86.9837178 49.80524139 87.89321686 50.13755798 88.83027649 C51.94358355 93.73430494 54.0012684 97.73255826 57 102 C57 102.66 57 103.32 57 104 C57.66 104 58.32 104 59 104 C59 104.99 59 105.98 59 107 C54.10201092 107.77836261 49.34553007 108.21632885 44.375 108.3125 C42.46847656 108.36857422 42.46847656 108.36857422 40.5234375 108.42578125 C36.40257829 107.92780602 34.87630547 106.93341622 32 104 C26.92111745 96.61557208 23 82.96412572 23 74 C21.99445068 74.31694824 20.98890137 74.63389648 19.95288086 74.96044922 C16.22016784 76.02385984 12.63545516 76.39958639 8.75390625 76.6328125 C8.09792953 76.67437469 7.44195282 76.71593689 6.76609802 76.75875854 C4.69860124 76.88810145 2.63065703 77.00673685 0.5625 77.125 C-0.85095519 77.21152815 -2.2643674 77.29876138 -3.67773438 77.38671875 C-7.11803127 77.5992891 -10.55881448 77.80227091 -14 78 C-15.36413431 80.94504263 -16.68513579 83.90767132 -18 86.875 C-18.57234375 88.10863281 -18.57234375 88.10863281 -19.15625 89.3671875 C-19.5171875 90.1921875 -19.878125 91.0171875 -20.25 91.8671875 C-20.58515625 92.61081543 -20.9203125 93.35444336 -21.265625 94.12060547 C-22.41188965 98.11970752 -22.41188965 98.11970752 -22 107 C-30.91 107 -39.82 107 -49 107 C-47.37930589 103.75861178 -45.62380516 100.77149104 -43.67602539 97.72436523 C-33.73050217 82.15380787 -25.84373934 65.70421377 -18 49 C-17.44521973 47.81921875 -16.89043945 46.6384375 -16.31884766 45.421875 C-14.86656798 42.32760702 -13.41881871 39.23124995 -11.97421265 36.13339233 C-11.15156172 34.36945397 -10.32739298 32.60622372 -9.50317383 30.84301758 C-7.98336842 27.57023178 -6.48914877 24.28682836 -5 21 C-4.50725586 19.94989746 -4.01451172 18.89979492 -3.50683594 17.81787109 C-3.04825195 16.79902832 -2.58966797 15.78018555 -2.1171875 14.73046875 C-1.70839355 13.84125732 -1.29959961 12.9520459 -0.87841797 12.03588867 C0.41691548 8.08584017 0.41691548 8.08584017 0 0 Z M8 29 C6.00130443 33.23355919 4.00760929 37.46942215 2.01855469 41.70751953 C1.34089622 43.14957414 0.66186476 44.59098436 -0.01855469 46.03173828 C-0.99513827 48.10021635 -1.96679503 50.17094546 -2.9375 52.2421875 C-3.24373291 52.88807831 -3.54996582 53.53396912 -3.86547852 54.19943237 C-5.47608154 57.46002291 -5.47608154 57.46002291 -6 61 C2.25 61 10.5 61 19 61 C16.03 50.44 13.06 39.88 10 29 C9.34 29 8.68 29 8 29 Z " fill="#00AEEF" transform="translate(430,151)"/>
<path d="M0 0 C0.20086364 5.72461376 -0.15747919 11.25655965 -0.875 16.9375 C-1.03742188 18.22527344 -1.19984375 19.51304687 -1.3671875 20.83984375 C-2 24 -2 24 -4 26 C-5.175625 24.4221875 -5.175625 24.4221875 -6.375 22.8125 C-11.79919915 16.44552337 -19.55504718 13.37041273 -27.75 12.6875 C-32.40424615 12.7397949 -36.20894996 14.33914563 -40 17 C-42.68609865 21.02914797 -42.78897106 24.26617361 -42 29 C-40.10861514 31.81145577 -40.10861514 31.81145577 -37 34 C-36.35675781 34.53109375 -35.71351563 35.0621875 -35.05078125 35.609375 C-31.05622427 38.85091854 -26.95109698 41.69342448 -22.5625 44.375 C-13.47879757 50.05709156 -5.44389323 56.94821861 -0.6875 66.6875 C1.15846473 75.58169372 0.76373195 84.11654141 -4 92 C-10.35938417 100.45633627 -19.63264528 105.86424591 -30 108 C-44.38052078 109.0293206 -58.81370509 109.46594847 -72 103 C-72.33 102.67 -72.66 102.34 -73 102 C-72.94583375 99.99622639 -72.81815889 97.99436246 -72.66015625 95.99609375 C-72.56669922 94.78115234 -72.47324219 93.56621094 -72.37695312 92.31445312 C-72.27318359 91.03505859 -72.16941406 89.75566406 -72.0625 88.4375 C-71.96259766 87.15423828 -71.86269531 85.87097656 -71.75976562 84.54882812 C-71.51125161 81.36548191 -71.25777637 78.18260742 -71 75 C-70.34 75 -69.68 75 -69 75 C-67.95061775 76.50848699 -66.96101296 78.05873368 -66 79.625 C-62.22973259 85.22087057 -57.97260962 88.04099231 -52 91 C-51.34 91.33 -50.68 91.66 -50 92 C-47.23632418 92.15159403 -44.51467843 92.23141393 -41.75 92.25 C-40.99847656 92.270625 -40.24695313 92.29125 -39.47265625 92.3125 C-33.7593627 92.35238338 -29.45060377 91.36610019 -25.1875 87.25 C-23.51692739 84.08470452 -23.12328699 81.57532268 -23 78 C-25.57282686 69.76695405 -33.2881245 65.33461385 -40.3125 61.125 C-50.52276391 54.97752092 -61.25841441 48.07305007 -64.87109375 36.1171875 C-66.60417626 27.69935815 -66.12117026 20.2830394 -61.8125 12.75 C-55.88777192 4.18246318 -47.75777916 -0.16349612 -37.6875 -2.25 C-27.13303326 -3.88273519 -9.85319302 -4.92659651 0 0 Z " fill="#00AEEF" transform="translate(979,151)"/>
<path d="M0 0 C9.36227028 6.73223323 13.69138268 15.80978582 16.0625 26.875 C16.40691192 31.69676689 16.3125 36.54094833 16.3125 41.375 C-1.8375 41.375 -19.9875 41.375 -38.6875 41.375 C-34.88030057 50.61952313 -34.88030057 50.61952313 -27.48046875 55.44921875 C-20.47762659 57.77044056 -11.27785904 57.50596291 -4.5 54.5625 C-1.70537701 53.08082253 0.91817003 51.45702606 3.3125 49.375 C6.98036393 50.87849377 9.00160393 53.01228792 11.5625 56 C12.26890625 56.81726563 12.9753125 57.63453125 13.703125 58.4765625 C14.23421875 59.10304688 14.7653125 59.72953125 15.3125 60.375 C12.33152165 67.32562288 5.30035593 70.64887173 -1.31640625 73.61328125 C-10.94042969 76.7050186 -26.17696843 77.28296388 -35.6875 73.375 C-47.26067994 67.34390623 -54.23120174 59.54690368 -58.44140625 47.15625 C-61.53880446 35.19985972 -60.04707089 23.07067593 -53.95703125 12.3203125 C-47.96076997 3.48749649 -39.83313885 -2.68685298 -29.33984375 -5.18359375 C-18.83460692 -6.93188795 -9.11480893 -5.54278921 0 0 Z M-33.6875 16.375 C-34.450625 16.99375 -35.21375 17.6125 -36 18.25 C-38.24360979 20.72281021 -38.24360979 20.72281021 -38.6875 26.375 C-27.4675 26.375 -16.2475 26.375 -4.6875 26.375 C-5.71490867 20.210548 -6.4988988 18.66101053 -10.6875 14.375 C-17.4853585 9.96314482 -27.88680355 11.02051097 -33.6875 16.375 Z " fill="#00AEEF" transform="translate(1437.6875,184.625)"/>
<path d="M0 0 C-0.51515793 9.34956835 -1.05409279 18.68180768 -2 28 C-5.46261088 26.84579637 -5.72840465 26.20025943 -7.625 23.25 C-11.64612132 17.65058856 -17.24473192 14.35376114 -24 13 C-31.80352949 12.31547987 -39.08190979 13.858887 -45.3046875 18.84765625 C-54.70987307 28.62550011 -58.4048695 42.0885171 -58.3125 55.375 C-58.30758545 56.21135986 -58.3026709 57.04771973 -58.29760742 57.90942383 C-58.12104488 67.21291156 -56.21425559 75.77150062 -50 83 C-43.78940023 88.23769465 -36.34991522 90.52695014 -28.25 90.2421875 C-19.25091878 89.2735364 -12.2009033 86.36993033 -4.59375 81.5234375 C-2.30570509 80.1795557 -0.58747964 79.45158843 2 79 C-1.45917008 88.92985293 -6.27233884 96.90094545 -15 103 C-15.67546875 103.48855469 -16.3509375 103.97710937 -17.046875 104.48046875 C-23.76190063 108.39756703 -30.54366452 108.49472232 -38.125 108.5625 C-39.66305298 108.58449463 -39.66305298 108.58449463 -41.23217773 108.60693359 C-48.02697146 108.51591965 -53.05610795 107.27658212 -59 104 C-59.84691406 103.55398437 -60.69382812 103.10796875 -61.56640625 102.6484375 C-72.05635152 95.95622193 -78.74176429 85.77955988 -81.53979492 73.66235352 C-84.85387685 54.48990606 -82.0047571 35.05077174 -71.1484375 18.8671875 C-61.96049805 6.60546468 -50.40538121 0.1356651 -35.35546875 -2.5703125 C-24.27117311 -3.98972172 -10.70221498 -3.56740499 0 0 Z " fill="#00AEEF" transform="translate(667,151)"/>
<path d="M0 0 C5.22961747 4.80046947 8.83825893 11.35632368 9.16712952 18.48590088 C9.16490891 19.47185242 9.16268829 20.45780396 9.16040039 21.47363281 C9.16028709 23.15492279 9.16028709 23.15492279 9.16017151 24.87017822 C9.15501022 26.07446472 9.14984894 27.27875122 9.14453125 28.51953125 C9.1431163 29.75684998 9.14170135 30.9941687 9.14024353 32.26898193 C9.1355961 35.55035566 9.12661847 38.83167998 9.11553955 42.11303711 C9.1052902 45.46467636 9.10082359 48.81631773 9.09570312 52.16796875 C9.08467524 58.73830305 9.06741117 65.30859506 9.046875 71.87890625 C2.776875 71.87890625 -3.493125 71.87890625 -9.953125 71.87890625 C-10.283125 70.55890625 -10.613125 69.23890625 -10.953125 67.87890625 C-13.71814336 68.93611915 -16.3242664 70.07220906 -18.953125 71.44140625 C-26.22980756 74.92814998 -35.11148892 75.01191985 -42.765625 72.62890625 C-50.2348398 69.73974473 -54.31872646 65.93050819 -57.953125 58.87890625 C-60.31316376 51.79878997 -60.06966907 43.26315417 -57.015625 36.44140625 C-53.193828 29.83220176 -47.14357769 25.30460113 -39.953125 22.87890625 C-34.07887961 21.45944574 -28.08194194 21.76834614 -22.078125 21.81640625 C-20.47324219 21.82317383 -20.47324219 21.82317383 -18.8359375 21.83007812 C-16.20827514 21.84180876 -13.58072962 21.85822397 -10.953125 21.87890625 C-12.70879061 16.85379022 -12.70879061 16.85379022 -16.1640625 12.97265625 C-19.66720784 11.59887376 -22.86433524 11.34711162 -26.578125 11.37890625 C-27.6312085 11.37987305 -27.6312085 11.37987305 -28.70556641 11.38085938 C-34.43698989 11.54315591 -38.85362869 13.03325871 -43.9140625 15.78515625 C-45.953125 16.87890625 -45.953125 16.87890625 -47.953125 16.87890625 C-49.40506865 14.99837683 -50.76677105 13.04753776 -52.078125 11.06640625 C-52.80257813 9.98746094 -53.52703125 8.90851563 -54.2734375 7.796875 C-55.953125 4.87890625 -55.953125 4.87890625 -55.953125 1.87890625 C-38.39027585 -7.74329302 -17.51381123 -12.39008986 0 0 Z M-36.953125 40.87890625 C-39.61126279 44.86611294 -39.80127181 48.18865438 -38.953125 52.87890625 C-35.65737746 56.44187656 -32.68244853 57.66715235 -27.890625 58.25390625 C-21.67993883 57.66241233 -16.20458841 55.19658918 -11.828125 50.69140625 C-10.93008108 47.80483651 -10.86438504 45.7070387 -10.8984375 42.703125 C-10.91028076 41.34900513 -10.91028076 41.34900513 -10.92236328 39.9675293 C-10.93251465 39.27828369 -10.94266602 38.58903809 -10.953125 37.87890625 C-14.3487947 37.79144679 -17.74417273 37.73836181 -21.140625 37.69140625 C-22.10033203 37.66626953 -23.06003906 37.64113281 -24.04882812 37.61523438 C-31.01930647 37.48600079 -31.01930647 37.48600079 -36.953125 40.87890625 Z " fill="#00AEEF" transform="translate(1245.953125,186.12109375)"/>
<path d="M0 0 C5.06245347 4.14488378 8.26462643 9.92593269 9.5625 16.3125 C9.64845017 18.17581146 9.68022649 20.04193855 9.67602539 21.90722656 C9.67591209 23.58851654 9.67591209 23.58851654 9.67579651 25.30377197 C9.67063522 26.50805847 9.66547394 27.71234497 9.66015625 28.953125 C9.6587413 30.19044373 9.65732635 31.42776245 9.65586853 32.70257568 C9.6512211 35.98394941 9.64224347 39.26527373 9.63116455 42.54663086 C9.6209152 45.89827011 9.61644859 49.24991148 9.61132812 52.6015625 C9.60030024 59.1718968 9.58303617 65.74218881 9.5625 72.3125 C3.2925 72.3125 -2.9775 72.3125 -9.4375 72.3125 C-9.4375 70.6625 -9.4375 69.0125 -9.4375 67.3125 C-10.23414063 67.73402344 -11.03078125 68.15554687 -11.8515625 68.58984375 C-13.44097656 69.41162109 -13.44097656 69.41162109 -15.0625 70.25 C-16.10664062 70.79527344 -17.15078125 71.34054687 -18.2265625 71.90234375 C-26.29716152 75.44673091 -36.03477242 75.5330685 -44.26953125 72.4140625 C-50.12698994 69.43784024 -55.15003039 64.81748641 -57.81640625 58.75 C-59.43909216 52.38172322 -59.66375965 44.5980944 -57.3125 38.375 C-52.27786448 30.15176198 -46.47143387 25.03356893 -36.8671875 22.68359375 C-31.76446638 22.131477 -26.69039694 22.20895156 -21.5625 22.25 C-19.95761719 22.25676758 -19.95761719 22.25676758 -18.3203125 22.26367188 C-15.69265014 22.27540251 -13.06510462 22.29181772 -10.4375 22.3125 C-12.55962405 16.18500938 -12.55962405 16.18500938 -17.4375 12.3125 C-20.22928916 11.96096306 -22.71116472 11.79044661 -25.5 11.8125 C-26.2535376 11.81314453 -27.0070752 11.81378906 -27.78344727 11.81445312 C-33.69032081 11.97084307 -38.22012023 13.35332944 -43.43359375 16.21875 C-45.4375 17.3125 -45.4375 17.3125 -47.4375 17.3125 C-48.88944365 15.43197058 -50.25114605 13.48113151 -51.5625 11.5 C-52.28695313 10.42105469 -53.01140625 9.34210938 -53.7578125 8.23046875 C-55.4375 5.3125 -55.4375 5.3125 -55.4375 2.3125 C-38.02652855 -7.22648968 -17.66989352 -11.83487272 0 0 Z M-36.4375 41.3125 C-38.65715088 45.10738699 -39.63177624 47.19001508 -38.875 51.5625 C-36.7684629 55.59239706 -34.69145501 56.894515 -30.4375 58.3125 C-24.40211774 58.90420414 -20.37713643 57.61936957 -15.4375 54.3125 C-12.39304149 51.6485988 -10.56265773 49.92547022 -10.2421875 45.79541016 C-10.26539063 44.90644043 -10.28859375 44.0174707 -10.3125 43.1015625 C-10.33957031 41.75505615 -10.33957031 41.75505615 -10.3671875 40.38134766 C-10.39039063 39.69862793 -10.41359375 39.0159082 -10.4375 38.3125 C-13.8331697 38.22504054 -17.22854773 38.17195556 -20.625 38.125 C-21.58470703 38.09986328 -22.54441406 38.07472656 -23.53320312 38.04882812 C-30.51146826 37.90919261 -30.51146826 37.90919261 -36.4375 41.3125 Z " fill="#00AEEF" transform="translate(1622.4375,185.6875)"/>
<path d="M0 0 C4.84769763 5.95629462 7.61836605 13.52031405 10.625 20.5 C11.34042969 22.13388672 11.34042969 22.13388672 12.0703125 23.80078125 C14.5433224 29.48183456 16.89275605 35.17325833 19 41 C22.40287244 36.95270368 25.17780918 32.67992165 27.9375 28.1875 C28.77994792 26.82682292 29.62239583 25.46614583 30.46484375 24.10546875 C30.87822998 23.43080566 31.29161621 22.75614258 31.7175293 22.06103516 C32.593601 20.65311638 33.48932034 19.25728314 34.40161133 17.87255859 C37.65131519 12.95779015 37.65131519 12.95779015 38.8125 7.25 C38.86019531 6.53328125 38.90789062 5.8165625 38.95703125 5.078125 C38.99891518 3.05246567 39 1.02609229 39 -1 C48.57 -1 58.14 -1 68 -1 C68 -0.34 68 0.32 68 1 C66.57103209 2.15890999 65.14120518 3.31677709 63.70703125 4.46923828 C60.63021702 7.228338 58.37084949 10.57292567 56 13.9375 C55.17121338 15.09983154 55.17121338 15.09983154 54.32568359 16.28564453 C31.02439572 49.27407317 31.02439572 49.27407317 23.75 88.0625 C23.74081543 88.96677734 23.73163086 89.87105469 23.72216797 90.80273438 C23.74356133 95.37235582 24.00308348 98.80806016 26 103 C26 103.99 26 104.98 26 106 C16.1 106 6.2 106 -4 106 C-3.01 102.7 -2.02 99.4 -1 96 C-0.6231144 94.06418531 -0.29449679 92.11720096 -0.05078125 90.16015625 C0.07490234 89.15919922 0.20058594 88.15824219 0.33007812 87.12695312 C0.44802734 86.11568359 0.56597656 85.10441406 0.6875 84.0625 C0.81705078 83.05509766 0.94660156 82.04769531 1.08007812 81.00976562 C2.21094221 71.7055664 3.14883975 62.78566477 -0.0625 53.8125 C-0.28728027 53.18359863 -0.51206055 52.55469727 -0.74365234 51.90673828 C-1.46771447 49.9257396 -2.22553824 47.96180692 -3 46 C-3.24637207 45.37496582 -3.49274414 44.74993164 -3.74658203 44.10595703 C-7.21121887 35.490158 -11.31907071 27.1926895 -15.5625 18.9375 C-16.00932129 18.05690918 -16.45614258 17.17631836 -16.91650391 16.26904297 C-21.49540094 7.32049919 -21.49540094 7.32049919 -29 1 C-28.67 0.01 -28.34 -0.98 -28 -2 C-25.81274749 -2.16988369 -23.62518299 -2.33575269 -21.4375 -2.5 C-19.61025391 -2.63921875 -19.61025391 -2.63921875 -17.74609375 -2.78125 C-5.86420266 -3.47508306 -5.86420266 -3.47508306 0 0 Z " fill="#00AEEF" transform="translate(848,152)"/>
<path d="M0 0 C7.26 0 14.52 0 22 0 C22 28.38 22 56.76 22 86 C38.73904667 86.28938422 38.73904667 86.28938422 55.47827148 86.56811523 C57.56755269 86.60621979 59.65682732 86.64468733 61.74609375 86.68359375 C62.84215942 86.70006958 63.9382251 86.71654541 65.06750488 86.73352051 C66.10282349 86.75370239 67.13814209 86.77388428 68.20483398 86.79467773 C69.10862289 86.81022202 70.0124118 86.8257663 70.94358826 86.84178162 C73 87 73 87 74 88 C74.0983721 89.33043625 74.13078592 90.66593344 74.1328125 92 C74.13410156 92.804375 74.13539062 93.60875 74.13671875 94.4375 C74.13285156 95.283125 74.12898438 96.12875 74.125 97 C74.12886719 97.845625 74.13273437 98.69125 74.13671875 99.5625 C74.13542969 100.366875 74.13414063 101.17125 74.1328125 102 C74.13168457 102.7425 74.13055664 103.485 74.12939453 104.25 C74 106 74 106 73 107 C70.73008113 107.09439978 68.45718033 107.11742226 66.18530273 107.11352539 C65.0997376 107.11370619 65.0997376 107.11370619 63.99224186 107.11389065 C61.63932837 107.11314163 59.28649315 107.10551393 56.93359375 107.09765625 C55.48506712 107.0961868 54.03653996 107.09516611 52.5880127 107.09460449 C47.20450039 107.08935201 41.82099943 107.07539092 36.4375 107.0625 C24.413125 107.041875 12.38875 107.02125 0 107 C0 71.69 0 36.38 0 0 Z " fill="#00AEEF" transform="translate(1488,151)"/>
<path d="M0 0 C-0.5112012 4.50343911 -2.17521358 6.87525426 -5.0625 10.3125 C-6.16271484 11.63701172 -6.16271484 11.63701172 -7.28515625 12.98828125 C-7.85105469 13.65214844 -8.41695312 14.31601563 -9 15 C-14.6748927 13.15236052 -14.6748927 13.15236052 -17.3671875 11.890625 C-20.9484879 10.67914653 -24.3901728 10.70918222 -28.125 10.75 C-28.84042969 10.74226563 -29.55585937 10.73453125 -30.29296875 10.7265625 C-34.06475618 10.74066264 -35.78881279 10.85920853 -39 13 C-39.25030977 15.58380177 -39.25030977 15.58380177 -39 18 C-33.66974872 20.34426285 -28.34176948 22.21732622 -22.72119141 23.71337891 C-13.57802411 26.17956186 -4.60725008 29.0843856 0.625 37.625 C3.10774662 43.7308936 3.39200986 51.21200856 1.1171875 57.40234375 C-3.02803013 64.55353046 -9.23997968 69.31926571 -17 72 C-32.08277577 75.10718128 -47.04459283 73.47167224 -60 65 C-61.87890625 63.55859375 -61.87890625 63.55859375 -63 62 C-62.87663129 58.19099122 -60.66413719 56.37738601 -58 53.875 C-55.10714412 51.22939276 -55.10714412 51.22939276 -53 48 C-50.06616013 48.46941438 -48.30728883 49.40517069 -45.6875 50.9375 C-39.49192385 54.55487461 -33.10961355 55.86214997 -26 55 C-23.48564457 54.20186516 -21.36189981 53.2060765 -19 52 C-18.69889182 49.11095637 -18.69889182 49.11095637 -20 46 C-24.93184959 42.91497068 -30.97212948 41.70645201 -36.5 40.0625 C-45.54097219 37.31506675 -53.83073805 34.35727367 -59 26 C-61.79925215 19.42784277 -61.18879975 13.49646985 -58.9375 6.875 C-45.762307 -12.67528638 -18.11208748 -11.57161144 0 0 Z " fill="#00AEEF" transform="translate(1786,187)"/>
<path d="M0 0 C6.93 0 13.86 0 21 0 C21 35.31 21 70.62 21 107 C14.07 107 7.14 107 0 107 C0 71.69 0 36.38 0 0 Z " fill="#00AEEF" transform="translate(1349,151)"/>
<path d="M0 0 C1.98 0 3.96 0 6 0 C6 47.85 6 95.7 6 145 C4.02 145 2.04 145 0 145 C0 97.15 0 49.3 0 0 Z " fill="#00AEEF" transform="translate(1042,133)"/>
<path d="" fill="#00AEEF" transform="translate(0,0)"/>
<path d="" fill="#00AEEF" transform="translate(0,0)"/>
<path d="" fill="#00AEEF" transform="translate(0,0)"/>
<path d="" fill="#00AEEF" transform="translate(0,0)"/>
<path d="" fill="#00AEEF" transform="translate(0,0)"/>
<path d="" fill="#00AEEF" transform="translate(0,0)"/>
<path d="" fill="#00AEEF" transform="translate(0,0)"/>
<path d="" fill="#00AEEF" transform="translate(0,0)"/>
<path d="" fill="#00AEEF" transform="translate(0,0)"/>
</svg>
