<?xml version="1.0" encoding="UTF-8"?>
<svg id="Layer_1" data-name="Layer 1" xmlns="http://www.w3.org/2000/svg" version="1.1" viewBox="0 0 648 396">
  <defs>
    <style>
      .cls-1 {
        fill: #ffc635;
      }

      .cls-1, .cls-2, .cls-3 {
        stroke-width: 0px;
      }

      .cls-4 {
        opacity: .8;
      }

      .cls-2 {
        fill: #fff;
      }

      .cls-3 {
        fill: #1a1817;
      }
    </style>
  </defs>
  <g class="cls-4">
    <path class="cls-2" d="M8,0h632c4.4,0,8,3.6,8,8v380c0,4.4-3.6,8-8,8H8c-4.4,0-8-3.6-8-8V8C0,3.6,3.6,0,8,0Z"/>
  </g>
  <g>
    <path class="cls-3" d="M141.2,225.3c-.2,0-.4-.2-.4-.4v-55c0-.2.2-.4.4-.4h33.3c.2,0,.4.2.4.4v10.1c0,.2-.2.4-.4.4h-20.4c-.2,0-.4.2-.4.4v14.3c0,.2.2.4.4.4h17.6c.2,0,.4.2.4.4v9.8c0,.2-.2.4-.4.4h-17.6c-.2,0-.4.2-.4.4v18.5c0,.2-.2.4-.4.4h-12.1Z"/>
    <path class="cls-3" d="M213.8,220.8c-3.9,3.8-9,5.7-15.5,5.7s-11.7-1.9-15.5-5.7c-3.9-3.8-5.8-8.7-5.8-14.7s1.9-10.8,5.8-14.6c3.9-3.8,9.1-5.7,15.6-5.7s11.6,1.9,15.5,5.7c3.9,3.8,5.8,8.7,5.8,14.6s-1.9,10.8-5.8,14.7ZM198.3,216.1c2.8,0,5-.9,6.7-2.8,1.6-1.9,2.5-4.3,2.5-7.3s-.8-5.4-2.5-7.3c-1.6-1.9-3.9-2.8-6.7-2.8s-5.1.9-6.7,2.8c-1.6,1.9-2.4,4.3-2.4,7.3s.8,5.4,2.4,7.3c1.6,1.9,3.9,2.8,6.7,2.8Z"/>
    <path class="cls-3" d="M238.8,226.3c-4.6,0-8.1-1.4-10.5-4.1-2.4-2.7-3.7-6.6-3.7-11.6v-23.3c0-.2.2-.4.4-.4h11.5c.2,0,.4.2.4.4v20.6c0,5.4,2.1,8.1,6.4,8.1s7.4-2.8,7.4-8.5v-20.2c0-.2.2-.4.4-.4h11.3c.2,0,.4.2.4.4v37.6c0,.2-.2.4-.4.4h-11.3c-.2,0-.4-.2-.4-.4v-3c0-.6-.7-.8-1.1-.4-2.4,3.2-6,4.8-10.9,4.8h0Z"/>
    <path class="cls-3" d="M270,224.9v-37.6c0-.2.2-.4.4-.4h11.4c.2,0,.4.2.4.4v3c0,.6.7.8,1.1.4,2.4-3.2,6.2-4.8,11.3-4.8,9.4,0,14,5.2,14,15.7v23.4c0,.2-.2.4-.4.4h-11.5c-.2,0-.4-.2-.4-.4v-19.4c0-3.3-.5-5.7-1.6-7.2-1-1.5-2.8-2.2-5.2-2.2-4.9,0-7.4,3-7.4,9.1v19.7c0,.2-.2.4-.4.4h-11.4c-.2,0-.4-.2-.4-.4h0Z"/>
    <path class="cls-3" d="M344.7,169.5h11.3c.2,0,.4.2.4.4v55c0,.2-.2.4-.4.4h-11.3c-.2,0-.4-.2-.4-.4v-3.1c0-.6-.7-.8-1.1-.4-1,1.2-2.3,2.2-3.8,3.1-2.2,1.2-4.6,1.8-7.3,1.8-5.6,0-10-1.9-13.2-5.7-3.2-3.8-4.9-8.6-4.9-14.6s1.7-10.7,5-14.5c3.3-3.8,7.8-5.7,13.2-5.7s5.1.6,7.3,1.8c1.5.8,2.7,1.9,3.7,3.1.3.4,1.1.2,1.1-.4v-20.5c0-.2.2-.4.4-.4ZM335.6,216.2c2.9,0,5.2-1,6.8-2.9,1.6-1.9,2.4-4.3,2.4-7.3s-.8-5.3-2.4-7.2c-1.6-1.9-3.9-2.9-6.8-2.9s-5,.9-6.7,2.8c-1.7,1.9-2.5,4.3-2.5,7.3s.8,5.4,2.5,7.3c1.7,1.9,3.9,2.8,6.7,2.8h0Z"/>
    <path class="cls-3" d="M402.7,204.1c0,1.5,0,3.1-.3,5,0,.2-.2.4-.4.4h-27.6c-.2,0-.4.2-.4.4.2,2.3,1,4.1,2.5,5.4,1.6,1.4,3.7,2.1,6.5,2.1s6-1.1,7.1-3.4c0-.1.2-.2.4-.2h11.2c.2,0,.4.2.4.5-.7,3.6-2.7,6.5-6.1,8.7-3.5,2.4-7.8,3.5-13,3.5s-11.7-1.8-15.4-5.4c-3.8-3.6-5.7-8.6-5.7-15s1.9-11.2,5.7-14.9c3.8-3.6,8.8-5.5,15.1-5.5s10.8,1.7,14.5,5.1c3.7,3.4,5.6,7.8,5.6,13.2ZM374.4,201.9h15.8c.2,0,.4-.2.4-.4-.1-2.3-.8-4.2-2.1-5.5-1.4-1.4-3.4-2.1-6-2.1s-4.7.7-6.2,2.2c-1.4,1.4-2.2,3.1-2.3,5.3,0,.2.2.4.4.4h0Z"/>
    <path class="cls-3" d="M408.1,224.9v-37.6c0-.2.2-.4.4-.4h11.4c.2,0,.4.2.4.4v4.3c0,.6.8.8,1.1.3.7-1.3,1.6-2.4,2.8-3.3,2-1.5,4.2-2.3,6.7-2.3s2.1,0,2.9.3c.2,0,.3.2.3.4v10.5c0,.2-.2.4-.4.4-1.2-.1-2.3-.2-3.2-.2-6.7,0-10.1,4.3-10.1,12.8v14.4c0,.2-.2.4-.4.4h-11.4c-.2,0-.4-.2-.4-.4h0Z"/>
    <path class="cls-3" d="M484.5,224.9v-37.6c0-.2.2-.4.4-.4h11.4c.2,0,.4.2.4.4v37.6c0,.2-.2.4-.4.4h-11.4c-.2,0-.4-.2-.4-.4Z"/>
    <path class="cls-3" d="M503.7,224.9v-37.6c0-.2.2-.4.4-.4h11.4c.2,0,.4.2.4.4v3c0,.6.7.8,1.1.4,2.4-3.2,6.2-4.9,11.3-4.9,9.4,0,14,5.2,14,15.7v23.3c0,.2-.2.4-.4.4h-11.5c-.2,0-.4-.2-.4-.4v-19.4c0-3.3-.5-5.7-1.6-7.2-1-1.5-2.8-2.2-5.2-2.2-4.9,0-7.4,3-7.4,9.1v19.7c0,.2-.2.4-.4.4h-11.4c-.2,0-.4-.2-.4-.4h0Z"/>
    <path class="cls-3" d="M588.3,204.1c0,1.5,0,3.1-.3,5,0,.2-.2.4-.4.4h-27.6c-.2,0-.4.2-.4.4.2,2.3,1,4.1,2.5,5.4,1.6,1.4,3.7,2.1,6.5,2.1s6-1.1,7.1-3.4c0-.1.2-.2.4-.2h11.2c.2,0,.4.2.4.5-.7,3.6-2.7,6.5-6.1,8.7-3.5,2.4-7.8,3.5-13,3.5s-11.7-1.8-15.5-5.4c-3.8-3.6-5.6-8.6-5.6-15s1.9-11.2,5.6-14.9c3.8-3.6,8.8-5.4,15.1-5.4s10.8,1.7,14.5,5.1c3.7,3.4,5.6,7.8,5.6,13.2h0ZM560,201.9h15.8c.2,0,.4-.2.4-.4-.1-2.3-.8-4.2-2.1-5.5-1.4-1.4-3.4-2.1-6-2.1s-4.7.7-6.2,2.2c-1.4,1.4-2.2,3.2-2.3,5.3,0,.2.2.4.4.4Z"/>
    <path class="cls-3" d="M484.5,181.7h6.1c3.4,0,6.1-2.7,6.1-6.1v-6.1h-6.1c-3.4,0-6.1,2.7-6.1,6.1v6.1Z"/>
    <path class="cls-3" d="M453.5,225.1l-16.2-37.6c-.1-.3,0-.6.4-.6h12.6c.2,0,.3.1.4.3l8.5,23.9,8.5-23.9c0-.2.2-.3.4-.3h12.7c.3,0,.5.3.4.6l-16.3,37.6c0,.2-.2.2-.4.2h-10.5c-.2,0-.3,0-.4-.2h0Z"/>
    <path class="cls-1" d="M115.4,225.2h-27.9c-15.4,0-27.9-12.5-27.9-27.9v-27.9h27.9c15.4,0,27.9,12.5,27.9,27.9v27.9Z"/>
  </g>
</svg>