<svg xmlns="http://www.w3.org/2000/svg" xmlns:xlink="http://www.w3.org/1999/xlink" width="500" zoomAndPan="magnify" viewBox="0 0 375 374.999991" height="500" preserveAspectRatio="xMidYMid meet" version="1.0"><defs><clipPath id="ec3ea16cd9"><path d="M 56.25 122 L 145 122 L 145 282 L 56.25 282 Z M 56.25 122 " clip-rule="nonzero"/></clipPath><clipPath id="ab94bd574d"><path d="M 178 108.773438 L 318.75 108.773438 L 318.75 264.449219 L 178 264.449219 Z M 178 108.773438 " clip-rule="nonzero"/></clipPath><clipPath id="b12cfa8e53"><path d="M 307 222 L 318.75 222 L 318.75 232 L 307 232 Z M 307 222 " clip-rule="nonzero"/></clipPath><clipPath id="ffe154a5db"><path d="M 285.289062 233 L 318.75 233 L 318.75 271.863281 L 285.289062 271.863281 Z M 285.289062 233 " clip-rule="nonzero"/></clipPath><clipPath id="e18ba1da26"><path d="M 187 80.695312 L 188 80.695312 L 188 180 L 187 180 Z M 187 80.695312 " clip-rule="nonzero"/></clipPath><clipPath id="d001435301"><path d="M 155 289 L 164 289 L 164 294.445312 L 155 294.445312 Z M 155 289 " clip-rule="nonzero"/></clipPath></defs><rect x="-37.5" width="450" fill="#ffffff" y="-37.499999" height="449.999989" fill-opacity="1"/><rect x="-37.5" width="450" fill="#ffffff" y="-37.499999" height="449.999989" fill-opacity="1"/><g clip-path="url(#ec3ea16cd9)"><path fill="#e88d54" d="M 116.140625 281.585938 C 111.253906 281.585938 108.753906 276.304688 108.753906 276.304688 L 108.753906 270.839844 L 109.335938 267.921875 C 109.433594 268.011719 109.554688 268.058594 109.675781 268.058594 C 109.800781 268.058594 109.925781 268.011719 110.019531 267.917969 L 133.414062 244.808594 C 132.636719 246.105469 132.019531 247.585938 131.703125 249.15625 C 130.609375 254.625 127.332031 253.347656 127.332031 255.351562 C 127.332031 257.269531 126.832031 259.191406 124.550781 259.191406 C 124.449219 259.191406 124.34375 259.1875 124.238281 259.179688 C 124.09375 259.167969 123.957031 259.164062 123.824219 259.164062 C 121.621094 259.164062 121.027344 260.550781 119.136719 262.09375 C 117.132812 263.734375 120.957031 263.917969 118.042969 266.648438 C 115.128906 269.382812 119.683594 270.472656 117.859375 271.023438 C 116.09375 271.550781 117.585938 274.488281 116.003906 274.488281 C 115.957031 274.488281 115.910156 274.484375 115.855469 274.480469 C 115.808594 274.476562 115.761719 274.472656 115.71875 274.472656 C 114.132812 274.472656 115.855469 277.582031 115.855469 277.582031 C 116.949219 279.582031 118.410156 281.222656 118.410156 281.222656 C 117.605469 281.476562 116.847656 281.585938 116.140625 281.585938 M 109.484375 267.070312 L 109.484375 265.1875 L 110.03125 262.636719 L 110.757812 260.453125 L 110.574219 257.539062 L 112.761719 251.710938 C 112.578125 245.878906 113.308594 250.617188 114.035156 240.226562 C 114.765625 229.847656 108.753906 235.675781 108.023438 229.484375 C 107.328125 223.535156 103.433594 223.300781 103.773438 221.03125 L 132.796875 210.695312 C 133.148438 211.597656 133.5 212.628906 134.070312 213.632812 C 135.417969 215.992188 135.675781 216.015625 138 216.722656 C 139.839844 220.339844 142.058594 223.730469 144.613281 226.835938 C 144.019531 227.664062 143.542969 228.429688 143.542969 229.117188 C 143.542969 230.066406 143.417969 231.917969 143.128906 233.835938 L 109.484375 267.070312 M 137.90625 240.371094 L 142.835938 235.5 C 142.335938 237.949219 141.539062 240.089844 140.367188 240.089844 C 140.277344 240.089844 140.179688 240.074219 140.082031 240.050781 C 139.894531 239.996094 139.695312 239.96875 139.488281 239.96875 C 139.003906 239.96875 138.464844 240.109375 137.90625 240.371094 M 104.0625 219.886719 C 104.523438 217.960938 104.363281 217.082031 104.199219 215.636719 C 104.019531 214 105.113281 211.8125 106.386719 209.808594 C 107.429688 208.167969 107.375 206.648438 106.621094 205.449219 L 122.023438 202.734375 C 123.898438 205.105469 128.109375 207.65625 130.246094 207.984375 C 131.355469 208.15625 131.945312 208.84375 132.40625 209.792969 L 104.0625 219.886719 M 104.070312 205.96875 C 104.023438 205.96875 103.976562 205.953125 103.929688 205.925781 L 104.289062 205.859375 C 104.21875 205.925781 104.148438 205.96875 104.070312 205.96875 M 103.089844 205.078125 C 101.679688 204.183594 98.816406 204.160156 99.285156 203.066406 C 99.832031 201.792969 99.644531 199.972656 97.644531 199.425781 C 95.640625 198.882812 94 198.882812 93.089844 197.238281 C 92.609375 196.371094 91.925781 196.167969 91.222656 196.167969 C 90.597656 196.167969 89.960938 196.328125 89.449219 196.328125 C 88.351562 196.328125 79.792969 192.5 80.707031 191.410156 C 80.765625 191.335938 80.816406 191.261719 80.863281 191.179688 L 89.320312 191.179688 C 90.054688 192.492188 90.902344 193.230469 90.902344 193.230469 C 91.15625 193.273438 91.394531 193.289062 91.617188 193.289062 C 93.449219 193.289062 94.363281 192.058594 94.78125 191.179688 L 97.792969 191.179688 C 97.125 193.105469 96.914062 195.964844 96.914062 195.964844 C 97.40625 195.945312 97.84375 195.933594 98.234375 195.933594 C 101.464844 195.933594 101.464844 196.703125 101.464844 199.785156 C 101.464844 202.648438 103.457031 202.898438 104.152344 202.898438 C 104.296875 202.898438 104.382812 202.886719 104.382812 202.886719 L 106.386719 203.433594 L 108.023438 203.433594 L 109.664062 202.15625 L 110.574219 200.515625 L 112.761719 199.785156 L 112.398438 201.066406 L 112.214844 202.886719 L 112.792969 203.367188 L 105.882812 204.585938 C 105.746094 204.480469 105.621094 204.429688 105.503906 204.429688 C 105.3125 204.429688 105.152344 204.558594 105.011719 204.742188 L 103.089844 205.078125 M 113.367188 203.269531 L 113.492188 202.15625 L 113.492188 200.515625 L 114.21875 200.332031 L 114.582031 202.15625 L 116.585938 201.429688 L 118.589844 202.15625 L 120.25 202.050781 L 113.367188 203.269531 M 98.226562 190.199219 L 95.136719 190.199219 C 95.523438 189.355469 96.902344 188.933594 97.851562 188.933594 C 98.625 188.933594 99.113281 189.214844 98.554688 189.773438 C 98.4375 189.886719 98.328125 190.03125 98.226562 190.199219 M 88.847656 190.199219 L 81.109375 190.199219 C 81.148438 189.191406 80.707031 188.132812 80.707031 188.132812 L 78.699219 185.398438 C 78.699219 185.398438 78.335938 183.753906 76.699219 180.84375 C 75.058594 177.929688 73.421875 177.746094 73.421875 177.746094 L 72.691406 178.109375 L 75.421875 183.027344 L 77.246094 188.132812 L 75.789062 186.855469 L 74.328125 184.855469 L 72.875 183.390625 L 71.234375 182.121094 L 73.054688 181.570312 L 71.78125 180.109375 L 70.6875 177.195312 L 69.046875 175.011719 L 67.042969 174.101562 C 67.042969 174.101562 65.765625 173.558594 64.128906 167.910156 C 62.488281 162.265625 65.765625 157.886719 62.488281 155.882812 C 60.242188 154.511719 57.660156 151.429688 56.253906 149.625 L 56.253906 123.664062 C 58.292969 123.015625 60.121094 122.363281 60.121094 122.363281 C 61.09375 124.304688 62.546875 124.628906 63.410156 124.628906 C 63.84375 124.628906 64.128906 124.550781 64.128906 124.550781 L 65.585938 124 L 67.410156 124.734375 L 69.046875 125.09375 L 70.503906 125.640625 L 71.960938 126.734375 L 71.78125 127.828125 L 73.785156 127.828125 L 76.332031 128.558594 L 78.335938 127.46875 L 78.882812 126.1875 L 81.4375 126.917969 L 84.898438 126.917969 L 89.082031 126.734375 L 91.085938 125.640625 L 94 127.46875 L 100.011719 125.828125 L 103.289062 126.003906 L 102.925781 128.375 L 101.464844 131.652344 L 100.011719 130.742188 L 98.371094 129.285156 L 98.371094 129.816406 L 97.171875 129.003906 C 97.089844 128.945312 96.992188 128.917969 96.898438 128.917969 C 96.742188 128.917969 96.589844 128.996094 96.492188 129.132812 C 96.34375 129.359375 96.398438 129.664062 96.625 129.816406 L 98.371094 130.996094 L 98.371094 131.105469 L 96.914062 132.929688 L 95.640625 135.296875 C 95.640625 135.296875 93.089844 137.304688 92.359375 137.304688 C 91.632812 137.304688 91.269531 140.761719 91.269531 140.761719 L 92.542969 141.496094 L 93.269531 143.859375 C 93.269531 143.859375 93.605469 143.8125 94.085938 143.8125 C 94.929688 143.8125 96.21875 143.957031 96.914062 144.769531 C 98.007812 146.046875 102.746094 146.410156 102.746094 146.410156 C 102.914062 147.78125 101.960938 151.5625 104.414062 151.5625 C 104.570312 151.5625 104.742188 151.546875 104.929688 151.511719 C 108.023438 150.964844 105.296875 147.140625 105.296875 147.140625 C 110.757812 145.496094 106.023438 141.3125 106.023438 141.3125 C 107.601562 140.160156 107.03125 137.648438 106.722656 136.640625 L 128.011719 151.046875 C 128.144531 152.285156 126.3125 152.15625 126.605469 153.335938 C 126.972656 154.792969 129.335938 155.15625 129.335938 155.15625 L 130.246094 158.253906 L 127.695312 158.621094 L 126.421875 157.519531 L 123.871094 157.707031 L 123.324219 159.34375 L 121.324219 161.167969 L 119.492188 162.234375 L 118.539062 161.84375 L 118.226562 161.53125 C 118.082031 161.53125 117.941406 161.535156 117.808594 161.539062 L 86.515625 148.691406 C 86.457031 148.667969 86.394531 148.652344 86.332031 148.652344 C 86.140625 148.652344 85.957031 148.765625 85.878906 148.957031 C 85.777344 149.207031 85.894531 149.492188 86.144531 149.59375 L 116.046875 161.875 C 113.8125 162.75 114.402344 164.992188 114.402344 164.992188 C 114.402344 164.992188 115.496094 165.175781 110.941406 166.085938 C 106.664062 166.941406 109.933594 173.089844 109.296875 173.695312 L 80.59375 167.636719 C 80.5625 167.632812 80.53125 167.628906 80.496094 167.628906 C 80.269531 167.628906 80.0625 167.785156 80.015625 168.015625 C 79.960938 168.28125 80.128906 168.539062 80.390625 168.597656 L 105.835938 173.964844 C 104.25 174.539062 102.984375 176.078125 104.199219 179.933594 C 105.703125 184.695312 103.929688 186.007812 102.917969 186.007812 C 102.457031 186.007812 102.152344 185.738281 102.378906 185.398438 C 103.105469 184.304688 101.832031 181.753906 101.105469 180.476562 C 100.375 179.203125 100.558594 179.203125 98.007812 178.839844 C 97.824219 178.8125 97.660156 178.800781 97.519531 178.800781 C 96.722656 178.800781 96.582031 179.195312 96.429688 179.589844 C 96.285156 179.984375 96.128906 180.378906 95.308594 180.378906 C 95.101562 180.378906 94.851562 180.351562 94.546875 180.296875 C 93.488281 180.097656 92.738281 179.824219 92.109375 179.824219 C 91.015625 179.824219 90.289062 180.648438 88.898438 184.121094 C 87.921875 186.566406 88.21875 188.648438 88.847656 190.199219 M 127.117188 149.257812 L 115.917969 141.683594 C 116.371094 141.578125 116.621094 140.773438 116.871094 139.972656 C 117.140625 139.113281 117.414062 138.253906 117.953125 138.253906 C 118.128906 138.253906 118.339844 138.351562 118.589844 138.574219 C 120.59375 140.402344 120.410156 143.859375 122.78125 145.136719 C 124.945312 146.300781 125.742188 147.164062 127.117188 149.257812 M 114.734375 140.882812 L 107.746094 136.152344 C 111.878906 136.203125 113.101562 139 114.734375 140.882812 " fill-opacity="1" fill-rule="nonzero"/></g><path fill="#e88d54" d="M 74.695312 126.28125 L 73.328125 125.460938 L 72.691406 125.28125 L 70.6875 124.640625 L 69.6875 123.730469 C 69.6875 123.730469 71.84375 123.296875 73.214844 123.296875 C 73.511719 123.296875 73.769531 123.316406 73.964844 123.363281 C 74.058594 123.386719 74.136719 123.402344 74.195312 123.402344 C 74.476562 123.402344 74.339844 123.15625 73.75 122.910156 C 73.152344 122.664062 72.097656 122.417969 70.535156 122.417969 C 70.210938 122.417969 69.867188 122.429688 69.503906 122.453125 L 70.6875 121.542969 L 69.316406 120.8125 L 69.230469 119.902344 L 70.050781 118.808594 L 72.050781 118.539062 L 72.964844 117.992188 L 73.328125 118.808594 L 74.785156 118.808594 L 76.0625 119.632812 L 76.515625 119.265625 L 77.605469 119.082031 L 78.246094 119.808594 L 78.972656 120.542969 L 78.972656 118.085938 L 79.976562 118.085938 L 80.246094 117.351562 L 82.253906 117.535156 L 82.34375 118.539062 L 82.160156 119.359375 L 81.4375 119.632812 L 81.796875 120.445312 L 81.980469 122.089844 L 83.164062 122.730469 L 84.347656 122.730469 L 84.800781 123.457031 L 85.167969 123.820312 L 85.257812 124.914062 L 83.707031 124.457031 L 83.070312 125.460938 L 80.339844 125.640625 L 79.613281 125.1875 L 78.335938 125.640625 L 76.96875 126.003906 L 74.695312 126.28125 " fill-opacity="1" fill-rule="nonzero"/><path fill="#e88d54" d="M 65.042969 122.058594 L 63.886719 121.089844 L 61.761719 120.660156 L 63.035156 118.964844 L 63.644531 118.292969 L 64.070312 117.265625 L 63.035156 116.351562 L 66.007812 116.105469 C 66.007812 116.105469 67.371094 116.652344 68.503906 116.652344 C 68.789062 116.652344 69.058594 116.617188 69.289062 116.53125 C 69.417969 116.484375 69.558594 116.464844 69.703125 116.464844 C 70.875 116.464844 72.480469 117.832031 71.78125 118.054688 C 70.988281 118.292969 68.742188 118.414062 68.136719 119.570312 C 67.839844 120.132812 67.585938 120.277344 67.410156 120.277344 C 67.21875 120.277344 67.105469 120.113281 67.105469 120.113281 L 67.042969 121.027344 L 66.074219 121.394531 L 65.042969 122.058594 " fill-opacity="1" fill-rule="nonzero"/><path fill="#e88d54" d="M 87.246094 122.171875 C 86.914062 122.171875 86.730469 121.695312 86.410156 121.332031 C 85.984375 120.84375 86.234375 120.78125 84.652344 120.175781 C 83.070312 119.570312 83.921875 118.714844 83.921875 118.714844 L 84.589844 119.207031 L 85.5625 119.207031 L 85.5625 118.355469 C 85.5625 118.355469 85.535156 118.359375 85.488281 118.359375 C 85.289062 118.359375 84.757812 118.320312 84.710938 117.933594 C 84.664062 117.542969 85.042969 117.039062 85.507812 117.039062 C 85.621094 117.039062 85.746094 117.070312 85.867188 117.140625 C 86.039062 117.246094 86.222656 117.289062 86.40625 117.289062 C 86.882812 117.289062 87.390625 117.003906 87.867188 116.65625 C 87.96875 116.582031 88.0625 116.550781 88.148438 116.550781 C 88.648438 116.550781 88.917969 117.574219 88.65625 117.992188 C 88.351562 118.476562 89.082031 119.144531 89.507812 119.632812 C 89.921875 120.105469 90.046875 121.214844 89.265625 121.214844 C 89.246094 121.214844 89.226562 121.214844 89.203125 121.214844 C 89.140625 121.210938 89.074219 121.203125 89.019531 121.203125 C 88.332031 121.203125 88.1875 121.550781 87.625 122 C 87.476562 122.121094 87.355469 122.171875 87.246094 122.171875 " fill-opacity="1" fill-rule="nonzero"/><path fill="#e88d54" d="M 90.523438 111.84375 C 90.195312 111.84375 90.011719 111.371094 89.6875 111.003906 C 89.265625 110.519531 89.507812 110.460938 87.929688 109.859375 C 86.351562 109.246094 87.203125 108.390625 87.203125 108.390625 L 87.867188 108.882812 L 88.839844 108.882812 L 88.839844 108.03125 C 88.839844 108.03125 88.808594 108.035156 88.757812 108.035156 C 88.550781 108.035156 88.035156 107.996094 87.992188 107.605469 C 87.941406 107.21875 88.320312 106.710938 88.785156 106.710938 C 88.898438 106.710938 89.023438 106.746094 89.144531 106.816406 C 89.316406 106.917969 89.496094 106.964844 89.6875 106.964844 C 90.160156 106.964844 90.671875 106.679688 91.148438 106.332031 C 91.25 106.257812 91.34375 106.226562 91.429688 106.226562 C 91.925781 106.226562 92.195312 107.253906 91.9375 107.671875 C 91.632812 108.152344 92.359375 108.824219 92.785156 109.308594 C 93.203125 109.785156 93.324219 110.890625 92.542969 110.890625 C 92.523438 110.890625 92.503906 110.886719 92.480469 110.886719 C 92.417969 110.882812 92.359375 110.882812 92.300781 110.882812 C 91.613281 110.882812 91.464844 111.230469 90.902344 111.675781 C 90.757812 111.796875 90.632812 111.84375 90.523438 111.84375 " fill-opacity="1" fill-rule="nonzero"/><path fill="#e88d54" d="M 91.507812 124.976562 L 91.269531 124.425781 L 89.875 124.183594 L 88.898438 123.640625 L 89.328125 122.972656 L 88.839844 122 L 89.6875 121.511719 L 90.417969 121.089844 L 90.785156 119.933594 C 90.785156 119.933594 90.417969 119.265625 90.117188 118.476562 C 89.8125 117.6875 90.050781 117.265625 91.085938 116.777344 C 91.34375 116.65625 91.738281 116.609375 92.1875 116.609375 C 93.527344 116.609375 95.332031 117.019531 95.332031 117.019531 L 94.304688 117.75 L 93.757812 119.023438 C 93.757812 119.023438 93.324219 119.078125 92.984375 119.078125 C 92.8125 119.078125 92.664062 119.0625 92.605469 119.023438 C 92.59375 119.011719 92.578125 119.011719 92.566406 119.011719 C 92.378906 119.011719 92.058594 119.753906 92.058594 119.753906 L 91.507812 120.90625 L 92.238281 120.90625 L 92.726562 121.878906 L 93.394531 122.425781 C 93.394531 122.425781 93.816406 123.089844 94.0625 123.457031 C 94.304688 123.820312 93.210938 124.183594 93.210938 124.183594 L 92.359375 124.367188 L 91.507812 124.976562 " fill-opacity="1" fill-rule="nonzero"/><path fill="#e88d54" d="M 76.761719 116.199219 L 75.394531 115.378906 L 74.753906 115.195312 L 72.75 114.554688 L 71.75 113.648438 C 71.75 113.648438 73.917969 113.214844 75.289062 113.214844 C 75.582031 113.214844 75.835938 113.234375 76.027344 113.28125 C 76.125 113.304688 76.199219 113.316406 76.257812 113.316406 C 76.539062 113.316406 76.40625 113.074219 75.8125 112.828125 C 75.21875 112.582031 74.171875 112.339844 72.613281 112.339844 C 72.285156 112.339844 71.9375 112.351562 71.5625 112.375 L 72.75 111.464844 L 71.382812 110.734375 L 71.296875 109.820312 L 72.113281 108.730469 L 74.121094 108.457031 L 75.027344 107.910156 L 75.394531 108.730469 L 76.847656 108.730469 L 78.125 109.550781 L 78.582031 109.1875 L 79.671875 109.003906 L 80.308594 109.734375 L 81.039062 110.460938 L 81.039062 108.003906 L 82.039062 108.003906 L 82.3125 107.269531 L 84.316406 107.453125 L 84.40625 108.457031 L 84.226562 109.277344 L 83.5 109.550781 L 83.859375 110.371094 L 84.046875 112.011719 L 85.226562 112.644531 L 86.410156 112.644531 L 86.867188 113.375 L 87.230469 113.738281 L 87.320312 114.835938 L 85.773438 114.378906 L 85.136719 115.378906 L 82.402344 115.5625 L 81.675781 115.105469 L 80.402344 115.5625 L 79.035156 115.921875 L 76.761719 116.199219 " fill-opacity="1" fill-rule="nonzero"/><path fill="#e88d54" d="M 62.355469 110.265625 C 62.019531 110.265625 61.835938 109.792969 61.519531 109.429688 C 61.09375 108.945312 61.335938 108.882812 59.757812 108.273438 C 58.179688 107.667969 59.027344 106.816406 59.027344 106.816406 L 59.695312 107.300781 L 60.671875 107.300781 L 60.671875 106.449219 C 60.671875 106.449219 60.636719 106.453125 60.582031 106.453125 C 60.375 106.453125 59.867188 106.414062 59.820312 106.027344 C 59.769531 105.640625 60.148438 105.136719 60.613281 105.136719 C 60.726562 105.136719 60.851562 105.167969 60.972656 105.238281 C 61.144531 105.34375 61.328125 105.390625 61.511719 105.386719 C 61.988281 105.386719 62.496094 105.101562 62.976562 104.75 C 63.074219 104.679688 63.167969 104.648438 63.257812 104.648438 C 63.753906 104.648438 64.023438 105.675781 63.765625 106.089844 C 63.464844 106.570312 64.191406 107.242188 64.613281 107.726562 C 65.03125 108.199219 65.15625 109.308594 64.375 109.308594 C 64.355469 109.308594 64.332031 109.308594 64.3125 109.308594 C 64.25 109.304688 64.1875 109.300781 64.132812 109.300781 C 63.441406 109.300781 63.296875 109.644531 62.734375 110.097656 C 62.585938 110.214844 62.460938 110.265625 62.355469 110.265625 " fill-opacity="1" fill-rule="nonzero"/><path fill="#e88d54" d="M 66.617188 113.074219 L 66.375 112.527344 L 64.980469 112.285156 L 64.007812 111.738281 L 64.433594 111.066406 L 63.945312 110.097656 L 64.796875 109.609375 L 65.523438 109.1875 L 65.890625 108.03125 C 65.890625 108.03125 65.523438 107.367188 65.222656 106.570312 C 64.917969 105.78125 65.160156 105.359375 66.191406 104.878906 C 66.453125 104.753906 66.847656 104.707031 67.296875 104.707031 C 68.636719 104.707031 70.441406 105.117188 70.441406 105.117188 L 69.414062 105.84375 L 68.863281 107.121094 C 68.863281 107.121094 68.433594 107.175781 68.089844 107.175781 C 67.917969 107.175781 67.769531 107.164062 67.710938 107.121094 C 67.699219 107.113281 67.6875 107.109375 67.671875 107.109375 C 67.480469 107.109375 67.164062 107.851562 67.164062 107.851562 L 66.617188 109.003906 L 67.34375 109.003906 L 67.832031 109.972656 L 68.503906 110.519531 C 68.503906 110.519531 68.925781 111.191406 69.167969 111.550781 C 69.414062 111.917969 68.320312 112.285156 68.320312 112.285156 L 67.46875 112.464844 L 66.617188 113.074219 " fill-opacity="1" fill-rule="nonzero"/><path fill="#e88d54" d="M 117.613281 136.816406 C 117.195312 136.816406 116.769531 136.753906 116.28125 136.394531 C 115.875 136.085938 115.339844 135.953125 114.746094 135.953125 C 114.632812 135.953125 114.519531 135.957031 114.402344 135.96875 C 114.367188 135.96875 114.332031 135.96875 114.296875 135.96875 C 113.59375 135.96875 112.804688 135.390625 112.457031 134.816406 C 112.09375 134.203125 111.667969 133.78125 111 133.414062 C 110.332031 133.046875 110.214844 133.046875 109.90625 132.75 C 109.804688 132.648438 109.578125 132.613281 109.316406 132.613281 C 108.796875 132.613281 108.148438 132.75 108.148438 132.75 L 107.296875 132.871094 L 106.570312 132.566406 L 106.324219 132.140625 L 107.050781 131.351562 L 109.117188 131.351562 L 110.574219 131.105469 L 109.96875 129.714844 C 109.96875 129.714844 110.820312 129.464844 111.425781 128.433594 C 112.03125 127.402344 111.121094 127.285156 111.121094 127.285156 L 109.785156 126.375 L 108.695312 126.25 L 107.84375 126.003906 L 108.996094 125.699219 C 108.996094 125.699219 108.085938 124.734375 107.050781 124.0625 C 106.773438 123.882812 106.5625 123.816406 106.402344 123.816406 C 106.203125 123.816406 106.078125 123.914062 105.980469 124.007812 C 105.878906 124.101562 105.804688 124.195312 105.714844 124.195312 C 105.695312 124.195312 105.679688 124.191406 105.660156 124.183594 C 105.46875 124.109375 105.011719 124.03125 104.484375 124.03125 C 104.179688 124.03125 103.847656 124.058594 103.535156 124.128906 C 103.4375 124.144531 103.34375 124.15625 103.25 124.15625 C 102.511719 124.15625 101.859375 123.550781 101.59375 122.851562 C 101.289062 122.058594 100.921875 122.121094 100.136719 121.027344 C 99.34375 119.933594 99.832031 119.207031 99.832031 118.839844 C 99.832031 118.476562 101.289062 118.234375 101.648438 117.6875 C 101.761719 117.523438 101.957031 117.453125 102.183594 117.453125 C 102.722656 117.453125 103.441406 117.84375 103.65625 118.355469 C 103.957031 119.082031 104.257812 119.324219 104.257812 119.324219 L 105.71875 120.113281 L 106.628906 119.808594 L 107.175781 119.449219 L 108.453125 119.449219 L 109.179688 120.601562 L 110.03125 121.148438 L 111.730469 121.148438 L 113.066406 122.605469 C 113.066406 122.605469 114.28125 122.851562 114.886719 123.152344 C 115.496094 123.457031 116.464844 124.367188 116.832031 125.15625 C 117.195312 125.949219 116.222656 125.699219 115.796875 126.003906 C 115.371094 126.3125 117.738281 126.734375 118.167969 127.285156 C 118.589844 127.828125 120.71875 127.523438 121.746094 128.011719 C 122.78125 128.496094 122.476562 129.164062 121.324219 129.832031 C 120.164062 130.503906 121.019531 130.984375 120.71875 131.53125 C 120.53125 131.867188 120.09375 132.203125 119.6875 132.203125 C 119.429688 132.203125 119.179688 132.070312 119.015625 131.714844 C 118.589844 130.804688 117.980469 130.257812 117.980469 130.257812 L 116.886719 129.769531 L 116.402344 131.050781 L 117.5 131.894531 L 119.015625 133.898438 C 119.015625 133.898438 119.664062 135.757812 119.210938 135.757812 C 119.125 135.757812 119.003906 135.691406 118.828125 135.539062 C 118.015625 134.816406 115.910156 133.917969 115.125 133.917969 C 114.863281 133.917969 114.75 134.019531 114.886719 134.265625 C 115.433594 135.238281 118.042969 136.816406 117.613281 136.816406 " fill-opacity="1" fill-rule="nonzero"/><g clip-path="url(#ab94bd574d)"><path fill="#e88d54" d="M 193.355469 264.0625 C 191.40625 264.0625 190.277344 263.066406 190.78125 261.632812 C 191.566406 259.417969 187.265625 256.289062 187.394531 252.246094 C 187.515625 248.472656 188.320312 252.765625 186.199219 247.09375 C 186.621094 247.105469 187.039062 247.109375 187.464844 247.109375 C 187.476562 247.109375 187.488281 247.109375 187.5 247.109375 C 187.511719 247.109375 187.523438 247.109375 187.535156 247.109375 C 195.625 247.109375 203.304688 245.378906 210.238281 242.257812 L 207.601562 244.550781 L 207.996094 250.289062 L 205.121094 251.722656 C 205.121094 258.378906 201.214844 261.113281 197.171875 263.070312 C 195.738281 263.761719 194.421875 264.0625 193.355469 264.0625 M 278.140625 226.949219 C 278.140625 226.949219 272.398438 222.640625 272.140625 220.6875 C 271.878906 218.730469 266.53125 216.640625 266.925781 214.6875 C 266.992188 214.355469 267.160156 214.21875 267.402344 214.21875 C 267.964844 214.21875 268.933594 214.960938 269.949219 215.703125 C 270.96875 216.445312 272.046875 217.191406 272.828125 217.191406 C 272.90625 217.191406 272.980469 217.183594 273.050781 217.164062 C 274.878906 216.777344 270.96875 215.078125 270.96875 208.953125 C 270.96875 208.902344 270.96875 208.851562 270.96875 208.800781 L 272.558594 209.132812 L 273.574219 211.167969 L 274.488281 212.601562 L 276.703125 215.730469 L 276.179688 220.035156 L 278.007812 221.730469 L 279.179688 223.6875 L 278.140625 226.949219 M 253.164062 213.46875 C 252.835938 213.46875 252.511719 213.226562 252.324219 212.734375 C 251.84375 211.488281 252.277344 209.960938 251.511719 209.960938 C 251.234375 209.960938 250.800781 210.160156 250.105469 210.648438 C 249.851562 210.828125 249.609375 210.90625 249.378906 210.90625 C 247.234375 210.90625 246.066406 203.996094 246.066406 203.996094 L 245.984375 203.527344 L 252.566406 204.917969 C 252.710938 206.246094 253.09375 207.789062 253.753906 209.472656 C 254.773438 212.058594 253.957031 213.46875 253.164062 213.46875 M 276.703125 210.253906 L 276.765625 210.023438 L 277.09375 210.089844 L 276.703125 210.253906 M 278.378906 209.363281 L 277.023438 209.078125 L 277.09375 208.816406 C 277.09375 208.816406 275.664062 205.949219 275.136719 205.949219 C 274.617188 205.949219 272.660156 205.296875 272.660156 205.296875 L 272.183594 208.054688 L 270.910156 207.785156 C 270.386719 202.730469 266.53125 202.03125 266.53125 200.082031 C 266.53125 198.472656 265.136719 193.453125 262.707031 193.453125 C 261.980469 193.453125 261.167969 193.894531 260.273438 194.996094 C 256.363281 199.824219 253.753906 199.691406 252.972656 201.257812 C 252.648438 201.910156 252.484375 202.808594 252.5 203.902344 L 245.804688 202.492188 L 244.761719 196.429688 C 244.761719 196.429688 243.835938 195.890625 242.871094 195.121094 C 242.945312 193.964844 242.980469 192.800781 242.980469 191.628906 C 242.980469 191.480469 242.980469 191.328125 242.980469 191.179688 L 290.304688 191.179688 C 288.21875 193.359375 286.089844 193.691406 286.089844 193.691406 C 286.089844 193.691406 282.308594 194.996094 281.789062 195.125 C 281.746094 195.136719 281.65625 195.140625 281.53125 195.140625 C 281.402344 195.140625 281.238281 195.136719 281.050781 195.132812 C 280.855469 195.128906 280.640625 195.125 280.410156 195.125 C 278.421875 195.125 275.328125 195.417969 278.140625 198.515625 C 281.917969 202.691406 281.136719 205.433594 281.136719 205.433594 L 279.441406 207.125 L 278.378906 209.363281 M 291.132812 190.199219 L 242.964844 190.199219 C 242.890625 187.257812 242.585938 184.375 242.070312 181.566406 L 295.164062 172.203125 C 295.113281 172.96875 295.304688 174.007812 294.566406 174.007812 C 293.414062 174.007812 291.632812 177.011719 292.554688 177.011719 C 292.570312 177.011719 292.589844 177.011719 292.609375 177.007812 C 292.625 177.007812 292.636719 177.007812 292.652344 177.007812 C 293.664062 177.007812 294.042969 182.214844 294.042969 182.214844 C 293.578125 185.957031 292.421875 188.488281 291.132812 190.199219 M 241.886719 180.605469 C 241.335938 177.871094 240.582031 175.210938 239.648438 172.636719 L 290.691406 154.457031 C 290.945312 154.367188 291.078125 154.089844 290.988281 153.835938 C 290.914062 153.636719 290.730469 153.507812 290.527344 153.507812 C 290.472656 153.507812 290.417969 153.519531 290.363281 153.539062 L 239.304688 171.722656 C 238.019531 168.375 236.417969 165.1875 234.542969 162.195312 L 280.800781 133.605469 C 281.027344 133.464844 281.101562 133.160156 280.957031 132.933594 C 280.867188 132.78125 280.703125 132.699219 280.539062 132.699219 C 280.453125 132.699219 280.363281 132.722656 280.285156 132.773438 L 234.015625 161.367188 C 231.929688 158.171875 229.527344 155.203125 226.847656 152.507812 L 265.667969 114.160156 C 265.859375 113.96875 265.863281 113.660156 265.671875 113.46875 C 265.578125 113.371094 265.449219 113.324219 265.324219 113.324219 C 265.199219 113.324219 265.074219 113.371094 264.980469 113.464844 L 226.152344 151.820312 C 223.113281 148.867188 219.738281 146.261719 216.089844 144.0625 L 227.363281 125.300781 C 227.828125 125.417969 228.335938 125.570312 228.847656 125.71875 C 229.933594 126.039062 231.03125 126.363281 231.773438 126.363281 C 232.050781 126.363281 232.28125 126.316406 232.441406 126.210938 C 233.539062 125.476562 229.167969 123.042969 231.304688 123.042969 C 231.453125 123.042969 231.632812 123.054688 231.855469 123.078125 C 234.433594 123.382812 239.242188 126.859375 240.269531 126.859375 C 240.570312 126.859375 240.550781 126.566406 240.066406 125.820312 C 238.207031 122.945312 239.121094 121.824219 240.410156 121.824219 C 240.617188 121.824219 240.828125 121.851562 241.042969 121.90625 C 241.605469 122.042969 242.265625 122.160156 242.953125 122.160156 C 244.1875 122.160156 245.515625 121.792969 246.519531 120.535156 C 247.300781 119.558594 247.839844 119.265625 248.355469 119.265625 C 248.867188 119.265625 249.355469 119.5625 250.039062 119.753906 C 251.410156 120.144531 254.734375 120.730469 254.734375 120.730469 C 254.734375 120.730469 252.386719 118.1875 254.34375 118.1875 C 256.296875 118.1875 256.882812 117.210938 256.882812 115.453125 C 256.882812 113.6875 260.015625 114.082031 263.140625 113.101562 C 266.273438 112.121094 266.863281 113.101562 267.054688 112.121094 C 267.25 111.148438 269.988281 110.757812 272.140625 110.757812 C 274.289062 110.757812 275.664062 109.972656 276.441406 109.390625 C 276.871094 109.0625 277.480469 108.917969 278.105469 108.917969 C 278.613281 108.917969 279.136719 109.015625 279.574219 109.191406 C 280.546875 109.582031 285.246094 112.714844 284.265625 114.082031 C 283.289062 115.453125 282.898438 116.234375 283.289062 117.601562 C 283.382812 117.941406 283.554688 118.0625 283.773438 118.0625 C 284.078125 118.0625 284.472656 117.839844 284.925781 117.613281 C 285.382812 117.386719 285.886719 117.164062 286.40625 117.164062 C 286.539062 117.164062 286.671875 117.175781 286.808594 117.210938 C 288.371094 117.601562 291.699219 118.386719 293.847656 118.386719 C 296 118.386719 295.609375 116.820312 296.78125 116.621094 C 296.972656 116.589844 297.1875 116.578125 297.414062 116.578125 C 298.558594 116.578125 300.007812 116.980469 300.496094 117.800781 C 301.085938 118.773438 300.496094 120.144531 300.300781 121.320312 C 300.195312 121.972656 301.175781 122.382812 302.164062 122.382812 C 302.957031 122.382812 303.753906 122.121094 304.015625 121.511719 C 304.382812 120.660156 305.277344 120.1875 306.089844 120.1875 C 306.585938 120.1875 307.046875 120.363281 307.34375 120.730469 C 307.808594 121.3125 308.339844 121.476562 308.816406 121.476562 C 309.148438 121.476562 309.449219 121.398438 309.691406 121.320312 C 310.277344 121.125 312.039062 119.554688 313.992188 119.167969 C 314.597656 119.046875 315.296875 119 316.003906 119 C 316.984375 119 317.976562 119.089844 318.75 119.191406 L 318.75 142.09375 C 316.113281 142.90625 313.339844 144.324219 311.644531 145.578125 C 308.644531 147.792969 308.90625 150.398438 308.90625 150.398438 L 310.863281 149.488281 L 313.339844 151.183594 L 314.773438 150.003906 L 315.816406 153.269531 C 315.816406 153.269531 317.25 157.441406 316.46875 159.53125 C 315.933594 160.945312 314.621094 161.941406 313.835938 161.941406 C 313.464844 161.941406 313.210938 161.722656 313.210938 161.222656 C 313.210938 159.894531 315.1875 153.667969 314.183594 153.667969 C 314.003906 153.667969 313.734375 153.863281 313.339844 154.316406 C 310.785156 157.246094 307.988281 165.796875 306.890625 165.796875 C 306.867188 165.796875 306.84375 165.792969 306.820312 165.785156 C 306.542969 165.679688 306.265625 165.613281 305.964844 165.613281 C 305.144531 165.613281 304.175781 166.117188 302.648438 167.746094 C 300.5625 169.957031 302.257812 174.785156 302.390625 175.828125 C 302.476562 176.523438 300.535156 177.566406 299.5 177.566406 C 298.984375 177.566406 298.695312 177.304688 299 176.613281 C 299.910156 174.523438 299.910156 175.175781 299.910156 173.875 C 299.910156 172.566406 296.910156 171.394531 295.738281 171.394531 C 295.683594 171.394531 295.636719 171.398438 295.59375 171.410156 C 295.503906 171.285156 295.355469 171.210938 295.199219 171.210938 C 295.167969 171.210938 295.144531 171.210938 295.113281 171.21875 L 241.886719 180.605469 M 215.25 143.566406 C 213.769531 142.710938 212.25 141.925781 210.691406 141.203125 C 210.703125 141.222656 210.71875 141.238281 210.734375 141.253906 C 205.429688 138.796875 199.667969 137.152344 193.617188 136.480469 C 193.789062 136.273438 194.015625 136.042969 194.304688 135.792969 C 196.257812 134.097656 198.214844 133.449219 196.648438 131.488281 C 196.417969 131.199219 196.175781 131.078125 195.925781 131.078125 C 194.480469 131.078125 192.769531 135.214844 191.433594 135.660156 C 191.089844 135.777344 190.828125 135.980469 190.636719 136.234375 C 189.585938 136.175781 188.527344 136.148438 187.464844 136.148438 C 184.386719 136.148438 181.363281 136.398438 178.417969 136.878906 C 178.664062 136.632812 178.945312 136.332031 179.179688 135.925781 C 179.371094 135.585938 179.6875 135.480469 180.007812 135.480469 C 180.5625 135.480469 181.132812 135.792969 181.132812 135.792969 C 181.132812 135.792969 182.046875 134.621094 182.828125 134.226562 C 183.609375 133.835938 183.875 133.3125 184 132.140625 C 184.132812 130.96875 185.109375 130.316406 185.109375 130.316406 L 187.457031 128.753906 L 188.4375 126.992188 L 189.414062 125.621094 L 191.761719 125.820312 L 196.847656 122.882812 C 196.847656 122.882812 198.34375 121.886719 199.5 121.886719 C 199.59375 121.886719 199.691406 121.890625 199.78125 121.90625 C 200.953125 122.097656 202.128906 123.863281 204.082031 124.058594 C 204.214844 124.070312 204.351562 124.078125 204.503906 124.078125 C 204.847656 124.078125 205.242188 124.050781 205.671875 124.023438 C 206.105469 123.996094 206.574219 123.96875 207.0625 123.96875 C 209.164062 123.96875 211.65625 124.460938 213.277344 127.574219 C 214.351562 129.648438 213.003906 130.246094 211.097656 130.246094 C 208.5 130.246094 204.863281 129.140625 204.863281 129.140625 L 208.386719 134.226562 L 209.753906 133.449219 C 209.753906 133.449219 211.75 134.445312 212.671875 134.445312 C 212.753906 134.445312 212.820312 134.4375 212.882812 134.425781 C 213.664062 134.226562 213.078125 132.269531 213.664062 130.707031 C 213.929688 129.992188 214.527344 129.847656 215.054688 129.847656 C 215.234375 129.847656 215.402344 129.863281 215.550781 129.878906 C 215.695312 129.894531 215.820312 129.910156 215.910156 129.910156 C 216.054688 129.910156 216.105469 129.871094 216.011719 129.730469 C 215.621094 129.140625 213.664062 127.769531 215.621094 126.40625 C 216.0625 126.097656 216.496094 125.976562 216.886719 125.976562 C 218.230469 125.976562 219.113281 127.382812 218.359375 127.382812 C 217.460938 127.382812 216.894531 129.1875 218.007812 129.1875 C 218.109375 129.1875 218.226562 129.171875 218.359375 129.140625 C 219.925781 128.753906 224.421875 126.011719 225.394531 125.230469 C 225.527344 125.125 225.734375 125.078125 225.992188 125.078125 C 226.101562 125.078125 226.21875 125.085938 226.34375 125.097656 L 215.25 143.566406 " fill-opacity="1" fill-rule="nonzero"/></g><path fill="#e88d54" d="M 287 225.902344 L 286.613281 224.46875 L 286.089844 224.335938 L 284.527344 224.46875 L 282.832031 224.078125 L 281.527344 221.730469 L 281.136719 218.859375 L 282.308594 218.339844 L 284.265625 217.164062 L 285.179688 214.816406 L 287.65625 214.164062 L 289.09375 212.621094 L 291.339844 213.097656 L 291.5625 213.515625 L 290.785156 214.816406 L 290.785156 216.777344 L 291.304688 218.859375 L 290.65625 220.164062 L 289.21875 221.601562 L 288.304688 225.121094 L 287 225.902344 M 290.734375 211.96875 L 289.675781 211.746094 L 290.523438 209.734375 L 290.65625 211.820312 L 290.734375 211.96875 " fill-opacity="1" fill-rule="nonzero"/><g clip-path="url(#b12cfa8e53)"><path fill="#e88d54" d="M 315.632812 232 C 315.144531 232 314.71875 231.84375 314.515625 231.382812 C 314.371094 231.058594 314.132812 230.945312 313.835938 230.945312 C 313.046875 230.945312 311.847656 231.773438 310.992188 231.773438 C 309.816406 231.773438 308.382812 230.464844 310.863281 229.425781 C 313.339844 228.382812 307.214844 225.382812 307.214844 225.382812 C 307.214844 225.382812 307.34375 223.425781 307.863281 223.039062 C 308.382812 222.640625 310.078125 222.382812 310.863281 222.121094 C 311.074219 222.050781 311.300781 222.019531 311.53125 222.019531 C 312.148438 222.019531 312.757812 222.261719 312.949219 222.640625 C 313.210938 223.164062 314.644531 224.078125 315.816406 224.992188 C 316.945312 225.871094 318.191406 225.910156 318.75 226.609375 L 318.75 230.792969 C 318.652344 230.734375 318.574219 230.710938 318.511719 230.710938 C 318.242188 230.710938 318.230469 231.15625 317.773438 231.382812 C 317.296875 231.621094 316.386719 232 315.632812 232 " fill-opacity="1" fill-rule="nonzero"/></g><g clip-path="url(#ffe154a5db)"><path fill="#e88d54" d="M 317.550781 271.269531 C 317.367188 271.269531 317.25 271.191406 317.25 271.027344 C 317.25 270.113281 315.164062 269.066406 314.515625 267.632812 C 313.859375 266.199219 310.863281 266.328125 310.863281 264.632812 C 310.863281 262.933594 309.816406 263.460938 307.863281 262.675781 C 305.910156 261.894531 305.257812 262.023438 304.210938 260.457031 C 303.878906 259.957031 303.347656 259.792969 302.710938 259.792969 C 302.074219 259.792969 301.332031 259.960938 300.589844 260.128906 C 299.84375 260.296875 299.097656 260.464844 298.445312 260.464844 C 298.367188 260.464844 298.292969 260.460938 298.21875 260.457031 C 297.640625 260.421875 297.167969 260.359375 296.6875 260.359375 C 295.527344 260.359375 294.324219 260.707031 291.5625 262.546875 C 290.085938 263.535156 288.960938 263.886719 288.226562 263.886719 C 287.019531 263.886719 286.863281 262.933594 287.917969 262.289062 C 289.609375 261.242188 287.265625 260.199219 287.527344 257.851562 C 287.785156 255.503906 285.828125 251.855469 285.828125 249.507812 C 285.828125 247.160156 288.304688 244.683594 290.265625 244.683594 C 292.21875 244.683594 294.304688 242.335938 294.695312 241.292969 C 295.078125 240.269531 297.1875 237.894531 298.75 237.894531 C 298.789062 237.894531 298.832031 237.898438 298.867188 237.898438 C 299.972656 237.992188 300.621094 238.476562 301.183594 238.476562 C 301.417969 238.476562 301.636719 238.390625 301.867188 238.164062 C 302.648438 237.378906 301.605469 235.160156 303.304688 233.988281 C 303.589844 233.789062 303.953125 233.707031 304.355469 233.707031 C 306.332031 233.707031 309.300781 235.683594 309.300781 235.683594 L 307.34375 238.6875 C 307.34375 238.6875 309.816406 239.335938 310.210938 240.117188 C 310.496094 240.695312 311.835938 241.472656 312.527344 241.851562 C 312.78125 241.992188 312.949219 242.074219 312.949219 242.074219 C 311.933594 233.335938 314 233.210938 314.121094 233.210938 C 314.121094 233.210938 314.125 233.210938 314.125 233.210938 C 314.125 233.210938 314.90625 234.511719 314.90625 235.683594 C 314.90625 236.859375 317.382812 237.769531 316.988281 238.816406 C 316.652344 239.714844 317.964844 241.582031 318.75 242.582031 L 318.75 270.847656 C 318.265625 271.105469 317.828125 271.269531 317.550781 271.269531 " fill-opacity="1" fill-rule="nonzero"/></g><path fill="#e88d54" d="M 293.523438 232.6875 L 289.351562 232.03125 L 289.113281 232.03125 C 289.0625 231.925781 288.972656 231.835938 288.855469 231.785156 L 279.9375 228.125 L 280.222656 227.859375 L 282.179688 228.507812 L 284.914062 228.121094 L 286.613281 229.035156 L 287 229.949219 L 290.785156 230.335938 L 292.480469 229.949219 L 294.171875 230.726562 L 297.695312 230.859375 L 296.78125 232.164062 L 293.523438 232.6875 M 286.878906 232.03125 L 286.875 232.03125 L 286.835938 232.011719 L 286.878906 232.03125 M 280.617188 230.597656 L 278.265625 229.6875 L 279.152344 228.859375 L 282.445312 230.210938 L 280.617188 230.597656 " fill-opacity="1" fill-rule="nonzero"/><path fill="#e88d54" d="M 302.300781 185.105469 C 302.101562 185.105469 300.707031 181.328125 301.796875 180.476562 C 302.976562 179.566406 303.882812 178.785156 304.539062 178.785156 C 305.1875 178.785156 307.929688 177.613281 307.929688 177.613281 L 308.582031 173.703125 C 308.582031 173.703125 308.640625 173.875 309.101562 173.875 C 309.335938 173.875 309.667969 173.832031 310.144531 173.703125 C 311.574219 173.308594 311.839844 171.746094 311.710938 170.960938 C 311.574219 170.179688 311.710938 169.265625 311.449219 168.484375 C 311.1875 167.699219 311.710938 166.660156 312.101562 166.660156 C 312.492188 166.660156 313.011719 166.261719 313.011719 166.261719 L 312.882812 164.699219 L 314.449219 165.875 C 314.449219 165.875 316.796875 167.175781 316.535156 168.085938 C 316.273438 169 314.707031 168.871094 314.707031 170.042969 C 314.707031 170.273438 314.59375 170.359375 314.414062 170.359375 C 314.144531 170.359375 313.730469 170.167969 313.324219 169.980469 C 312.917969 169.789062 312.519531 169.601562 312.285156 169.601562 C 312.097656 169.601562 312.011719 169.71875 312.101562 170.042969 C 312.492188 171.480469 312.882812 172.914062 312.492188 174.21875 C 312.101562 175.523438 311.1875 180.871094 310.015625 180.871094 C 309.804688 180.871094 309.5 180.863281 309.148438 180.863281 C 307.539062 180.863281 304.835938 180.953125 304.40625 181.910156 C 303.882812 183.085938 302.324219 184.386719 302.324219 185.039062 C 302.324219 185.085938 302.316406 185.105469 302.300781 185.105469 " fill-opacity="1" fill-rule="nonzero"/><path fill="#e88d54" d="M 132.796875 139.933594 C 132.066406 139.933594 129.882812 138.113281 129.882812 138.113281 L 125.144531 131.917969 L 127.695312 130.097656 L 127.511719 127 L 127.867188 126.050781 L 136.625 135.65625 C 136.410156 136.234375 136.257812 136.683594 136.257812 136.835938 C 136.257812 137.382812 133.527344 139.933594 132.796875 139.933594 M 137.027344 134.644531 L 128.253906 125.027344 L 128.609375 124.082031 L 124.964844 120.441406 L 121.503906 115.523438 L 118.367188 114.191406 L 114.128906 109.542969 C 114.03125 109.4375 113.902344 109.386719 113.769531 109.386719 C 113.648438 109.386719 113.53125 109.429688 113.441406 109.511719 C 113.238281 109.695312 113.226562 110.003906 113.410156 110.203125 L 116.207031 113.273438 L 115.492188 112.972656 C 115.492188 112.972656 112.109375 115.167969 110.402344 115.167969 C 110.335938 115.167969 110.273438 115.164062 110.214844 115.15625 C 108.574219 114.972656 107.660156 112.246094 106.929688 110.421875 C 106.414062 109.117188 107.011719 108.929688 107.390625 108.929688 C 107.542969 108.929688 107.660156 108.960938 107.660156 108.960938 C 107.660156 108.960938 112.398438 108.417969 113.488281 106.960938 C 114.582031 105.503906 115.855469 106.230469 119.683594 103.132812 C 121.171875 101.925781 121.859375 101.550781 122.21875 101.550781 C 122.785156 101.550781 122.546875 102.476562 123.324219 102.589844 C 124.203125 102.710938 124.910156 102.921875 125.742188 102.921875 C 126.117188 102.921875 126.515625 102.882812 126.96875 102.765625 C 128.425781 102.402344 128.972656 102.589844 130.609375 101.3125 C 130.824219 101.148438 131.011719 101.007812 131.183594 100.886719 L 147.6875 127.476562 L 145 127.90625 L 138.261719 131.734375 C 138.261719 131.734375 137.59375 133.257812 137.027344 134.644531 M 148.734375 127.308594 L 132.023438 100.386719 C 132.667969 100.097656 133.253906 100.082031 134.617188 99.855469 C 134.863281 99.816406 135.070312 99.796875 135.242188 99.796875 C 136.625 99.796875 136.035156 100.945312 137.167969 100.945312 C 138.441406 100.945312 139.902344 100.765625 140.8125 100.765625 C 141.71875 100.765625 145.183594 100.765625 146.636719 100.765625 C 148.097656 100.765625 148.277344 102.589844 149.003906 104.226562 C 149.246094 104.765625 149.796875 104.949219 150.46875 104.949219 C 151.847656 104.949219 153.734375 104.164062 154.46875 104.042969 C 155.566406 103.863281 160.480469 103.5 160.480469 103.5 L 159.386719 105.871094 L 157.933594 108.234375 L 157.570312 114.613281 L 155.015625 115.886719 L 152.289062 119.890625 L 153.925781 122.625 L 152.46875 125.542969 L 149.554688 127.179688 L 148.734375 127.308594 " fill-opacity="1" fill-rule="nonzero"/><g clip-path="url(#e18ba1da26)"><path fill="#301012" d="M 187.5 80.773438 C 187.226562 80.773438 187.011719 80.992188 187.011719 81.261719 L 187.011719 179.46875 C 187.011719 179.738281 187.226562 179.960938 187.5 179.960938 C 187.769531 179.960938 187.988281 179.738281 187.988281 179.46875 L 187.988281 81.261719 C 187.988281 80.992188 187.769531 80.773438 187.5 80.773438 " fill-opacity="1" fill-rule="nonzero"/></g><path fill="#301012" d="M 176.773438 190.691406 C 176.773438 190.421875 176.554688 190.199219 176.289062 190.199219 L 78.140625 190.199219 C 77.871094 190.199219 77.652344 190.421875 77.652344 190.691406 C 77.652344 190.960938 77.871094 191.179688 78.140625 191.179688 L 176.289062 191.179688 C 176.554688 191.179688 176.773438 190.960938 176.773438 190.691406 " fill-opacity="1" fill-rule="nonzero"/><path fill="#301012" d="M 296.859375 190.199219 L 198.714844 190.199219 C 198.445312 190.199219 198.226562 190.421875 198.226562 190.691406 C 198.226562 190.960938 198.445312 191.179688 198.714844 191.179688 L 296.859375 191.179688 C 297.128906 191.179688 297.347656 190.960938 297.347656 190.691406 C 297.347656 190.421875 297.128906 190.199219 296.859375 190.199219 " fill-opacity="1" fill-rule="nonzero"/><path fill="#301012" d="M 179.578125 182.734375 C 179.675781 182.839844 179.808594 182.890625 179.941406 182.890625 C 180.058594 182.890625 180.175781 182.851562 180.269531 182.765625 C 180.46875 182.582031 180.484375 182.273438 180.300781 182.074219 L 114.128906 109.542969 C 113.949219 109.347656 113.636719 109.332031 113.441406 109.511719 C 113.238281 109.695312 113.226562 110.003906 113.410156 110.203125 L 179.578125 182.734375 " fill-opacity="1" fill-rule="nonzero"/><path fill="#301012" d="M 195.421875 198.648438 C 195.242188 198.449219 194.929688 198.433594 194.730469 198.617188 C 194.53125 198.800781 194.519531 199.109375 194.699219 199.308594 L 260.871094 271.835938 C 260.96875 271.945312 261.097656 271.996094 261.230469 271.996094 C 261.351562 271.996094 261.46875 271.953125 261.5625 271.867188 C 261.761719 271.683594 261.773438 271.375 261.59375 271.179688 L 195.421875 198.648438 " fill-opacity="1" fill-rule="nonzero"/><path fill="#301012" d="M 179.867188 198.230469 C 179.679688 198.035156 179.371094 198.035156 179.175781 198.226562 L 109.332031 267.222656 C 109.140625 267.410156 109.136719 267.722656 109.328125 267.914062 C 109.425781 268.011719 109.550781 268.058594 109.675781 268.058594 C 109.800781 268.058594 109.925781 268.011719 110.019531 267.917969 L 179.863281 198.921875 C 180.054688 198.730469 180.058594 198.421875 179.867188 198.230469 " fill-opacity="1" fill-rule="nonzero"/><path fill="#301012" d="M 195.132812 183.148438 C 195.226562 183.25 195.355469 183.296875 195.480469 183.296875 C 195.605469 183.296875 195.730469 183.25 195.824219 183.15625 L 265.667969 114.160156 C 265.859375 113.96875 265.863281 113.660156 265.671875 113.46875 C 265.480469 113.273438 265.171875 113.273438 264.980469 113.464844 L 195.136719 182.460938 C 194.945312 182.652344 194.941406 182.960938 195.132812 183.148438 " fill-opacity="1" fill-rule="nonzero"/><path fill="#301012" d="M 177.398438 194.289062 C 177.304688 194.035156 177.03125 193.902344 176.773438 193.992188 L 84.3125 226.925781 C 84.054688 227.011719 83.921875 227.292969 84.011719 227.550781 C 84.085938 227.75 84.273438 227.871094 84.476562 227.871094 L 84.636719 227.84375 L 177.101562 194.914062 C 177.351562 194.824219 177.484375 194.542969 177.398438 194.289062 " fill-opacity="1" fill-rule="nonzero"/><path fill="#301012" d="M 197.605469 187.09375 C 197.675781 187.292969 197.863281 187.417969 198.066406 187.417969 L 198.230469 187.390625 L 290.691406 154.457031 C 290.945312 154.367188 291.078125 154.089844 290.988281 153.835938 C 290.898438 153.578125 290.621094 153.445312 290.363281 153.539062 L 197.898438 186.46875 C 197.644531 186.558594 197.515625 186.835938 197.605469 187.09375 " fill-opacity="1" fill-rule="nonzero"/><path fill="#301012" d="M 176.9375 192.554688 C 176.890625 192.289062 176.640625 192.109375 176.371094 192.15625 L 79.714844 209.203125 C 79.453125 209.246094 79.273438 209.5 79.320312 209.765625 C 79.363281 210.003906 79.570312 210.171875 79.800781 210.171875 L 79.886719 210.164062 L 176.539062 193.121094 C 176.804688 193.074219 176.984375 192.820312 176.9375 192.554688 " fill-opacity="1" fill-rule="nonzero"/><path fill="#301012" d="M 198.0625 188.828125 C 198.105469 189.066406 198.308594 189.234375 198.542969 189.234375 L 198.628906 189.226562 L 295.28125 172.183594 C 295.546875 172.132812 295.726562 171.878906 295.679688 171.613281 C 295.632812 171.351562 295.378906 171.171875 295.113281 171.21875 L 198.460938 188.261719 C 198.195312 188.308594 198.015625 188.5625 198.0625 188.828125 " fill-opacity="1" fill-rule="nonzero"/><path fill="#301012" d="M 86.144531 149.59375 L 176.9375 186.882812 C 177 186.90625 177.0625 186.917969 177.125 186.917969 C 177.316406 186.917969 177.5 186.804688 177.578125 186.613281 C 177.679688 186.367188 177.5625 186.078125 177.3125 185.976562 L 86.515625 148.691406 C 86.265625 148.589844 85.980469 148.707031 85.878906 148.957031 C 85.777344 149.207031 85.894531 149.492188 86.144531 149.59375 " fill-opacity="1" fill-rule="nonzero"/><path fill="#301012" d="M 288.855469 231.785156 L 198.058594 194.5 C 197.808594 194.398438 197.523438 194.515625 197.421875 194.765625 C 197.320312 195.015625 197.4375 195.300781 197.691406 195.402344 L 288.484375 232.691406 C 288.542969 232.714844 288.609375 232.726562 288.671875 232.726562 C 288.859375 232.726562 289.042969 232.613281 289.121094 232.421875 C 289.222656 232.175781 289.105469 231.886719 288.855469 231.785156 " fill-opacity="1" fill-rule="nonzero"/><path fill="#301012" d="M 183.207031 180.316406 C 183.277344 180.511719 183.464844 180.636719 183.667969 180.636719 L 183.832031 180.605469 C 184.085938 180.515625 184.214844 180.234375 184.125 179.980469 L 150.5625 87.691406 C 150.46875 87.441406 150.191406 87.308594 149.933594 87.398438 C 149.679688 87.492188 149.550781 87.773438 149.640625 88.027344 L 183.207031 180.316406 " fill-opacity="1" fill-rule="nonzero"/><path fill="#301012" d="M 191.148438 180.597656 L 191.316406 180.628906 C 191.515625 180.628906 191.703125 180.503906 191.773438 180.304688 L 225.167969 87.957031 C 225.257812 87.703125 225.128906 87.421875 224.875 87.332031 C 224.621094 87.238281 224.339844 87.371094 224.25 87.625 L 190.855469 179.972656 C 190.765625 180.226562 190.894531 180.507812 191.148438 180.597656 " fill-opacity="1" fill-rule="nonzero"/><path fill="#301012" d="M 193.027344 181.496094 C 193.105469 181.539062 193.191406 181.566406 193.277344 181.566406 C 193.445312 181.566406 193.605469 181.480469 193.699219 181.324219 L 244.269531 97.164062 C 244.410156 96.929688 244.335938 96.628906 244.105469 96.492188 C 243.875 96.351562 243.574219 96.425781 243.433594 96.660156 L 192.859375 180.824219 C 192.722656 181.054688 192.796875 181.355469 193.027344 181.496094 " fill-opacity="1" fill-rule="nonzero"/><path fill="#301012" d="M 196.625 185.050781 C 196.71875 185.199219 196.878906 185.28125 197.042969 185.28125 C 197.128906 185.28125 197.21875 185.261719 197.300781 185.210938 L 280.800781 133.605469 C 281.027344 133.464844 281.101562 133.160156 280.957031 132.933594 C 280.816406 132.703125 280.515625 132.632812 280.285156 132.773438 L 196.785156 184.378906 C 196.554688 184.519531 196.484375 184.820312 196.625 185.050781 " fill-opacity="1" fill-rule="nonzero"/><path fill="#301012" d="M 178.375 196.332031 C 178.234375 196.101562 177.933594 196.027344 177.703125 196.171875 L 94.199219 247.777344 C 93.972656 247.917969 93.898438 248.21875 94.042969 248.453125 C 94.132812 248.601562 94.292969 248.683594 94.457031 248.683594 C 94.546875 248.683594 94.632812 248.660156 94.714844 248.609375 L 178.214844 197.003906 C 178.445312 196.863281 178.519531 196.5625 178.375 196.332031 " fill-opacity="1" fill-rule="nonzero"/><path fill="#301012" d="M 294.609375 212.785156 L 198.574219 192.527344 C 198.3125 192.472656 198.050781 192.640625 197.996094 192.902344 C 197.9375 193.167969 198.105469 193.425781 198.371094 193.484375 L 294.40625 213.742188 L 294.507812 213.753906 C 294.734375 213.753906 294.933594 213.597656 294.984375 213.363281 C 295.039062 213.101562 294.871094 212.839844 294.609375 212.785156 " fill-opacity="1" fill-rule="nonzero"/><path fill="#301012" d="M 80.390625 168.597656 L 176.425781 188.855469 L 176.527344 188.867188 C 176.753906 188.867188 176.957031 188.707031 177.007812 188.476562 C 177.0625 188.210938 176.890625 187.953125 176.628906 187.898438 L 80.59375 167.636719 C 80.335938 167.585938 80.070312 167.75 80.015625 168.015625 C 79.960938 168.28125 80.128906 168.539062 80.390625 168.597656 " fill-opacity="1" fill-rule="nonzero"/><path fill="#301012" d="M 197.066406 196.570312 C 196.839844 196.417969 196.535156 196.476562 196.386719 196.703125 C 196.234375 196.925781 196.292969 197.226562 196.519531 197.378906 L 277.824219 252.378906 C 277.914062 252.4375 278.003906 252.460938 278.101562 252.460938 C 278.257812 252.460938 278.410156 252.386719 278.503906 252.246094 C 278.65625 252.023438 278.597656 251.71875 278.375 251.566406 L 197.066406 196.570312 " fill-opacity="1" fill-rule="nonzero"/><path fill="#301012" d="M 177.933594 184.8125 C 178.019531 184.871094 178.113281 184.898438 178.210938 184.898438 C 178.367188 184.898438 178.519531 184.820312 178.613281 184.683594 C 178.765625 184.457031 178.707031 184.152344 178.480469 184 L 97.171875 129.003906 C 96.949219 128.851562 96.644531 128.914062 96.492188 129.132812 C 96.34375 129.359375 96.398438 129.664062 96.625 129.816406 L 177.933594 184.8125 " fill-opacity="1" fill-rule="nonzero"/><path fill="#301012" d="M 181.167969 181.417969 C 181.261719 181.566406 181.417969 181.648438 181.582031 181.648438 C 181.667969 181.648438 181.761719 181.625 181.839844 181.574219 C 182.070312 181.433594 182.140625 181.128906 181.996094 180.902344 L 130.21875 97.472656 C 130.074219 97.246094 129.773438 97.175781 129.542969 97.316406 C 129.3125 97.460938 129.242188 97.761719 129.386719 97.992188 L 181.167969 181.417969 " fill-opacity="1" fill-rule="nonzero"/><path fill="#301012" d="M 185.558594 180.128906 L 185.640625 180.121094 C 185.90625 180.074219 186.085938 179.820312 186.039062 179.554688 L 169.039062 82.832031 C 168.996094 82.5625 168.742188 82.382812 168.472656 82.433594 C 168.207031 82.480469 168.03125 82.734375 168.078125 83 L 185.078125 179.722656 C 185.117188 179.960938 185.324219 180.128906 185.558594 180.128906 " fill-opacity="1" fill-rule="nonzero"/><path fill="#301012" d="M 189.183594 180.085938 C 189.421875 180.085938 189.628906 179.910156 189.664062 179.671875 L 204.394531 82.574219 C 204.4375 82.308594 204.253906 82.058594 203.984375 82.019531 C 203.722656 81.976562 203.46875 82.160156 203.429688 82.429688 L 188.699219 179.523438 C 188.660156 179.789062 188.839844 180.039062 189.109375 180.082031 L 189.183594 180.085938 " fill-opacity="1" fill-rule="nonzero"/><path fill="#413c53" d="M 242.910156 191.628906 C 242.910156 222.269531 218.085938 247.109375 187.464844 247.109375 C 156.84375 247.109375 132.019531 222.269531 132.019531 191.628906 C 132.019531 160.988281 156.84375 136.148438 187.464844 136.148438 C 218.085938 136.148438 242.910156 160.988281 242.910156 191.628906 " fill-opacity="1" fill-rule="nonzero"/><path fill="#ffffff" d="M 232.160156 191.628906 C 232.160156 216.328125 212.148438 236.351562 187.464844 236.351562 C 162.78125 236.351562 142.769531 216.328125 142.769531 191.628906 C 142.769531 166.925781 162.78125 146.90625 187.464844 146.90625 C 212.148438 146.90625 232.160156 166.925781 232.160156 191.628906 " fill-opacity="1" fill-rule="nonzero"/><path fill="#413c53" d="M 190.273438 194.425781 L 228.539062 191.542969 L 190.273438 188.820312 L 187.550781 150.527344 L 184.667969 188.820312 L 146.390625 191.542969 L 184.667969 194.425781 L 187.550781 232.730469 L 190.273438 194.425781 " fill-opacity="1" fill-rule="nonzero"/><path fill="#413c53" d="M 190.332031 191.621094 L 208.421875 170.566406 L 187.464844 188.753906 L 166.507812 170.566406 L 184.601562 191.621094 L 166.417969 212.601562 L 187.464844 194.488281 L 208.511719 212.601562 L 190.332031 191.621094 " fill-opacity="1" fill-rule="nonzero"/><path fill="#413c53" d="M 199.007812 137.804688 L 199.007812 132.507812 C 199.007812 131 197.785156 129.777344 196.277344 129.777344 L 178.652344 129.777344 C 177.144531 129.777344 175.921875 131 175.921875 132.507812 L 175.921875 137.804688 L 199.007812 137.804688 " fill-opacity="1" fill-rule="nonzero"/><path fill="#413c53" d="M 187.464844 98.707031 C 178.554688 98.707031 171.3125 105.957031 171.3125 114.871094 C 171.3125 123.785156 178.554688 131.039062 187.464844 131.039062 C 196.375 131.039062 203.621094 123.785156 203.621094 114.871094 C 203.621094 105.957031 196.375 98.707031 187.464844 98.707031 Z M 187.464844 134.4375 C 176.6875 134.4375 167.917969 125.660156 167.917969 114.871094 C 167.917969 104.085938 176.6875 95.3125 187.464844 95.3125 C 198.246094 95.3125 207.015625 104.085938 207.015625 114.871094 C 207.015625 125.660156 198.246094 134.4375 187.464844 134.4375 " fill-opacity="1" fill-rule="nonzero"/><path fill="#c38a55" d="M 210.238281 242.257812 L 210.3125 242.195312 C 215.71875 239.746094 220.660156 236.453125 224.972656 232.488281 L 225.003906 232.523438 C 220.664062 236.507812 215.683594 239.8125 210.238281 242.257812 " fill-opacity="1" fill-rule="nonzero"/><path fill="#b66e41" d="M 187.535156 247.109375 C 187.523438 247.109375 187.511719 247.109375 187.5 247.109375 C 195.632812 247.105469 203.355469 245.347656 210.3125 242.195312 L 210.238281 242.257812 C 203.304688 245.378906 195.625 247.109375 187.535156 247.109375 " fill-opacity="1" fill-rule="nonzero"/><path fill="#c38a55" d="M 225.71875 231.855469 L 225.683594 231.820312 C 228.648438 229 231.292969 225.859375 233.574219 222.449219 L 233.625 222.480469 C 231.339844 225.894531 228.683594 229.035156 225.71875 231.855469 " fill-opacity="1" fill-rule="nonzero"/><path fill="#270c0d" d="M 225.003906 232.523438 L 224.972656 232.488281 C 225.210938 232.269531 225.449219 232.042969 225.683594 231.820312 L 225.71875 231.855469 C 225.484375 232.082031 225.242188 232.304688 225.003906 232.523438 " fill-opacity="1" fill-rule="nonzero"/><path fill="#c38a55" d="M 234.160156 221.664062 L 234.113281 221.628906 C 235.992188 218.707031 237.605469 215.597656 238.921875 212.335938 L 238.980469 212.359375 C 237.664062 215.628906 236.046875 218.738281 234.160156 221.664062 M 239.335938 211.453125 L 239.277344 211.425781 C 240.351562 208.605469 241.207031 205.667969 241.816406 202.652344 L 241.882812 202.664062 C 241.273438 205.6875 240.417969 208.625 239.335938 211.453125 " fill-opacity="1" fill-rule="nonzero"/><path fill="#270c0d" d="M 238.980469 212.359375 L 238.921875 212.335938 C 239.039062 212.035156 239.160156 211.730469 239.277344 211.425781 L 239.335938 211.453125 C 239.222656 211.753906 239.101562 212.058594 238.980469 212.359375 " fill-opacity="1" fill-rule="nonzero"/><path fill="#c38a55" d="M 242.070312 201.703125 L 242.003906 201.6875 C 242.398438 199.523438 242.667969 197.3125 242.804688 195.070312 C 242.828125 195.085938 242.851562 195.105469 242.871094 195.121094 C 242.734375 197.355469 242.464844 199.550781 242.070312 201.703125 " fill-opacity="1" fill-rule="nonzero"/><path fill="#b66e41" d="M 242.871094 195.121094 C 242.851562 195.105469 242.828125 195.085938 242.804688 195.070312 C 242.875 193.929688 242.910156 192.78125 242.910156 191.628906 C 242.910156 191.480469 242.910156 191.332031 242.910156 191.179688 L 242.980469 191.179688 C 242.980469 191.328125 242.980469 191.480469 242.980469 191.628906 C 242.980469 192.800781 242.945312 193.964844 242.871094 195.121094 M 242.964844 190.199219 L 242.890625 190.199219 C 242.816406 187.265625 242.515625 184.382812 242.003906 181.578125 L 242.070312 181.566406 C 242.585938 184.375 242.890625 187.257812 242.964844 190.199219 M 241.820312 180.617188 C 241.269531 177.886719 240.519531 175.226562 239.585938 172.660156 L 239.648438 172.636719 C 240.582031 175.210938 241.335938 177.871094 241.886719 180.605469 L 241.820312 180.617188 M 239.242188 171.742188 C 237.960938 168.402344 236.367188 165.21875 234.492188 162.222656 L 234.542969 162.195312 C 236.417969 165.1875 238.019531 168.375 239.304688 171.722656 L 239.242188 171.742188 " fill-opacity="1" fill-rule="nonzero"/><path fill="#270c0d" d="M 242.980469 191.179688 L 242.910156 191.179688 C 242.90625 190.851562 242.902344 190.527344 242.890625 190.199219 L 242.964844 190.199219 C 242.972656 190.527344 242.976562 190.851562 242.980469 191.179688 " fill-opacity="1" fill-rule="nonzero"/><path fill="#270c0d" d="M 239.585938 172.660156 C 239.472656 172.355469 239.359375 172.050781 239.242188 171.742188 L 239.304688 171.722656 C 239.421875 172.023438 239.535156 172.332031 239.648438 172.636719 L 239.585938 172.660156 " fill-opacity="1" fill-rule="nonzero"/><path fill="#270c0d" d="M 242.003906 181.578125 C 241.945312 181.253906 241.882812 180.933594 241.820312 180.617188 L 241.886719 180.605469 C 241.953125 180.921875 242.011719 181.242188 242.070312 181.566406 L 242.003906 181.578125 " fill-opacity="1" fill-rule="nonzero"/><path fill="#b66e41" d="M 233.964844 161.398438 C 231.886719 158.203125 229.488281 155.238281 226.8125 152.542969 L 226.847656 152.507812 C 229.527344 155.203125 231.929688 158.171875 234.015625 161.367188 L 233.964844 161.398438 M 226.121094 151.855469 C 223.085938 148.898438 219.714844 146.292969 216.074219 144.089844 L 216.089844 144.0625 C 219.738281 146.261719 223.113281 148.867188 226.152344 151.820312 L 226.121094 151.855469 " fill-opacity="1" fill-rule="nonzero"/><path fill="#270c0d" d="M 226.8125 152.542969 C 226.585938 152.308594 226.351562 152.082031 226.121094 151.855469 L 226.152344 151.820312 C 226.386719 152.046875 226.617188 152.277344 226.847656 152.507812 L 226.8125 152.542969 " fill-opacity="1" fill-rule="nonzero"/><path fill="#b66e41" d="M 215.230469 143.59375 C 213.773438 142.746094 212.273438 141.96875 210.734375 141.253906 C 210.71875 141.238281 210.703125 141.222656 210.691406 141.203125 C 212.25 141.925781 213.769531 142.710938 215.25 143.566406 L 215.230469 143.59375 " fill-opacity="1" fill-rule="nonzero"/><path fill="#270c0d" d="M 216.074219 144.089844 C 215.792969 143.921875 215.511719 143.757812 215.230469 143.59375 L 215.25 143.566406 C 215.53125 143.730469 215.808594 143.894531 216.089844 144.0625 L 216.074219 144.089844 " fill-opacity="1" fill-rule="nonzero"/><path fill="#270c0d" d="M 234.492188 162.222656 C 234.320312 161.949219 234.144531 161.671875 233.964844 161.398438 L 234.015625 161.367188 C 234.195312 161.640625 234.371094 161.917969 234.542969 162.195312 L 234.492188 162.222656 " fill-opacity="1" fill-rule="nonzero"/><path fill="#270c0d" d="M 241.882812 202.664062 L 241.816406 202.652344 C 241.882812 202.328125 241.941406 202.011719 242.003906 201.6875 L 242.070312 201.703125 C 242.011719 202.023438 241.949219 202.347656 241.882812 202.664062 " fill-opacity="1" fill-rule="nonzero"/><path fill="#270c0d" d="M 233.625 222.480469 L 233.574219 222.449219 C 233.757812 222.175781 233.933594 221.90625 234.113281 221.628906 L 234.160156 221.664062 C 233.984375 221.9375 233.804688 222.207031 233.625 222.480469 " fill-opacity="1" fill-rule="nonzero"/><path fill="#322e3f" d="M 187.5 247.109375 C 171.191406 247.101562 156.53125 240.042969 146.390625 228.816406 C 153.4375 232.058594 161.277344 233.875 169.542969 233.875 C 170.546875 233.875 171.542969 233.847656 172.535156 233.792969 C 177.203125 235.449219 182.230469 236.351562 187.464844 236.351562 C 212.148438 236.351562 232.160156 216.328125 232.160156 191.628906 C 232.160156 181.640625 228.886719 172.414062 223.355469 164.96875 C 221.128906 156.003906 216.722656 147.902344 210.734375 141.253906 C 212.273438 141.96875 213.773438 142.746094 215.230469 143.59375 C 215.511719 143.757812 215.792969 143.921875 216.074219 144.089844 C 219.714844 146.292969 223.085938 148.898438 226.121094 151.855469 C 226.351562 152.082031 226.585938 152.308594 226.8125 152.542969 C 229.488281 155.238281 231.886719 158.203125 233.964844 161.398438 C 234.144531 161.671875 234.320312 161.949219 234.492188 162.222656 C 236.367188 165.21875 237.960938 168.402344 239.242188 171.742188 C 239.359375 172.050781 239.472656 172.355469 239.585938 172.660156 C 240.519531 175.226562 241.269531 177.886719 241.820312 180.617188 C 241.882812 180.933594 241.945312 181.253906 242.003906 181.578125 C 242.515625 184.382812 242.816406 187.265625 242.890625 190.199219 C 242.902344 190.527344 242.90625 190.851562 242.910156 191.179688 C 242.910156 191.332031 242.910156 191.480469 242.910156 191.628906 C 242.910156 192.78125 242.875 193.929688 242.804688 195.070312 C 242.667969 197.3125 242.398438 199.523438 242.003906 201.6875 C 241.941406 202.011719 241.882812 202.328125 241.816406 202.652344 C 241.207031 205.667969 240.351562 208.605469 239.277344 211.425781 C 239.160156 211.730469 239.039062 212.035156 238.921875 212.335938 C 237.605469 215.597656 235.992188 218.707031 234.113281 221.628906 C 233.933594 221.90625 233.757812 222.175781 233.574219 222.449219 C 231.292969 225.859375 228.648438 229 225.683594 231.820312 C 225.449219 232.042969 225.210938 232.269531 224.972656 232.488281 C 220.660156 236.453125 215.71875 239.746094 210.3125 242.195312 C 203.355469 245.347656 195.632812 247.105469 187.5 247.109375 " fill-opacity="1" fill-rule="nonzero"/><path fill="#c8c7c7" d="M 187.464844 236.351562 C 182.230469 236.351562 177.203125 235.449219 172.535156 233.792969 C 177.710938 233.519531 182.710938 232.53125 187.414062 230.929688 L 187.550781 232.730469 L 187.683594 230.835938 C 205.222656 224.765625 218.765625 210.132812 223.328125 191.9375 L 228.539062 191.542969 L 223.507812 191.183594 C 224.476562 187.078125 224.988281 182.796875 224.988281 178.390625 C 224.988281 173.761719 224.421875 169.265625 223.355469 164.96875 C 228.886719 172.414062 232.160156 181.640625 232.160156 191.628906 C 232.160156 216.328125 212.148438 236.351562 187.464844 236.351562 " fill-opacity="1" fill-rule="nonzero"/><path fill="#322e3f" d="M 187.550781 232.730469 L 187.414062 230.929688 C 187.503906 230.898438 187.59375 230.867188 187.683594 230.835938 L 187.550781 232.730469 M 223.328125 191.9375 C 223.390625 191.683594 223.449219 191.4375 223.507812 191.183594 L 228.539062 191.542969 L 223.328125 191.9375 " fill-opacity="1" fill-rule="nonzero"/><path fill="#625972" d="M 141.355469 207.40625 C 136.609375 199.53125 134.597656 189.757812 136.40625 179.738281 C 139.121094 164.671875 149.734375 153.140625 162.828125 149.140625 C 151.230469 154.726562 141.992188 166.824219 139.246094 182.035156 C 137.625 191.039062 138.511719 199.816406 141.355469 207.40625 " fill-opacity="1" fill-rule="nonzero"/><path fill="#301012" d="M 137.617188 268.691406 C 138.566406 265.457031 142.042969 262.824219 145.367188 262.824219 C 147.03125 262.824219 148.371094 263.378906 149.140625 264.378906 C 149.785156 265.21875 149.96875 266.339844 149.648438 267.523438 C 148.960938 270.097656 147.273438 270.53125 143.753906 270.53125 L 137.078125 270.53125 Z M 135.125 277.015625 C 135.277344 277.578125 135.53125 278.105469 135.882812 278.574219 C 136.796875 279.796875 138.265625 280.472656 140.011719 280.472656 C 144.136719 280.472656 146.75 278.695312 148.234375 274.875 C 148.324219 274.648438 148.210938 274.390625 147.980469 274.300781 C 147.753906 274.210938 147.492188 274.324219 147.402344 274.554688 C 146.050781 278.03125 143.773438 279.582031 140.011719 279.582031 C 138.554688 279.582031 137.339844 279.035156 136.59375 278.039062 C 135.832031 277.027344 135.636719 275.664062 136.019531 274.183594 L 136.054688 274.074219 L 136.058594 274.019531 L 136.070312 273.96875 L 136.816406 271.421875 L 143.753906 271.421875 C 146.914062 271.421875 149.601562 271.144531 150.511719 267.753906 C 150.902344 266.292969 150.664062 264.90625 149.84375 263.839844 C 148.90625 262.609375 147.316406 261.933594 145.367188 261.933594 C 141.675781 261.933594 137.816406 264.855469 136.765625 268.441406 L 136.109375 270.664062 C 136.035156 270.746094 135.984375 270.851562 135.984375 270.976562 L 135.996094 271.066406 L 135.214844 273.71875 C 135.195312 273.789062 135.183594 273.855469 135.164062 273.921875 L 134.324219 276.609375 C 133.808594 278.25 132.066406 279.582031 130.433594 279.582031 C 130.191406 279.582031 129.992188 279.785156 129.992188 280.03125 C 129.992188 280.273438 130.191406 280.472656 130.433594 280.472656 C 132.378906 280.472656 134.449219 278.933594 135.125 277.015625 " fill-opacity="1" fill-rule="nonzero"/><path fill="#301012" d="M 212.097656 262.699219 C 212.113281 262.515625 212.253906 262.402344 212.464844 262.402344 L 212.511719 262.402344 C 212.742188 262.421875 212.804688 262.511719 212.824219 262.542969 C 212.976562 262.773438 212.902344 263.261719 212.828125 263.523438 C 212.28125 263.273438 212.078125 262.941406 212.097656 262.699219 Z M 227.234375 268.277344 C 228.179688 265.039062 231.660156 262.410156 234.980469 262.410156 C 236.644531 262.410156 237.988281 262.960938 238.757812 263.964844 C 239.402344 264.804688 239.582031 265.921875 239.265625 267.109375 C 238.578125 269.679688 236.890625 270.113281 233.367188 270.113281 L 226.695312 270.113281 Z M 208.300781 276.609375 C 207.921875 277.765625 207.527344 278.960938 204.859375 279.066406 C 204.613281 279.078125 204.421875 279.285156 204.433594 279.527344 C 204.441406 279.765625 204.636719 279.957031 204.875 279.957031 L 204.894531 279.957031 C 208.183594 279.828125 208.761719 278.058594 209.144531 276.886719 C 209.199219 276.726562 209.25 276.574219 209.300781 276.433594 C 210.292969 273.875 212.632812 266.917969 213.402344 264.625 C 213.617188 264.667969 213.847656 264.703125 214.101562 264.726562 C 214.316406 264.746094 214.535156 264.761719 214.753906 264.777344 C 216.425781 264.90625 218.003906 265.027344 218.949219 266.28125 C 219.851562 267.484375 219.191406 269.261719 218.097656 272.203125 C 217.832031 272.917969 217.546875 273.6875 217.253906 274.527344 L 217.203125 274.667969 C 216.898438 275.527344 216.175781 277.539062 217.132812 278.894531 C 217.675781 279.671875 218.65625 280.066406 220.050781 280.066406 L 220.097656 280.058594 C 222.03125 280.03125 224.070312 278.503906 224.738281 276.597656 C 224.894531 277.164062 225.144531 277.6875 225.496094 278.15625 C 226.414062 279.382812 227.878906 280.058594 229.628906 280.058594 C 233.753906 280.058594 236.363281 278.28125 237.847656 274.460938 C 237.9375 274.230469 237.824219 273.972656 237.597656 273.882812 C 237.367188 273.792969 237.109375 273.90625 237.019531 274.136719 C 235.667969 277.617188 233.386719 279.167969 229.628906 279.167969 C 228.167969 279.167969 226.953125 278.621094 226.207031 277.625 C 225.449219 276.609375 225.253906 275.246094 225.632812 273.765625 L 225.667969 273.660156 L 225.671875 273.605469 L 225.683594 273.550781 L 226.429688 271.003906 L 233.367188 271.003906 C 236.527344 271.003906 239.214844 270.730469 240.125 267.339844 C 240.515625 265.878906 240.28125 264.488281 239.460938 263.421875 C 238.519531 262.195312 236.929688 261.519531 234.980469 261.519531 C 231.289062 261.519531 227.429688 264.4375 226.378906 268.023438 L 225.726562 270.246094 C 225.648438 270.328125 225.597656 270.4375 225.597656 270.5625 L 225.609375 270.648438 L 224.832031 273.300781 C 224.8125 273.371094 224.800781 273.433594 224.785156 273.503906 L 223.941406 276.195312 C 223.425781 277.835938 221.683594 279.167969 220.050781 279.167969 L 220.019531 279.175781 C 218.953125 279.171875 218.222656 278.902344 217.859375 278.382812 C 217.171875 277.40625 217.804688 275.636719 218.039062 274.96875 L 218.09375 274.820312 C 218.386719 273.984375 218.671875 273.21875 218.933594 272.511719 C 220.089844 269.398438 220.855469 267.335938 219.65625 265.746094 C 218.472656 264.171875 216.617188 264.027344 214.824219 263.890625 C 214.605469 263.875 214.390625 263.855469 214.175781 263.839844 C 214 263.824219 213.835938 263.800781 213.683594 263.773438 C 213.765625 263.476562 213.949219 262.636719 213.566406 262.054688 C 213.421875 261.832031 213.128906 261.558594 212.582031 261.515625 C 211.851562 261.457031 211.269531 261.9375 211.210938 262.625 C 211.160156 263.261719 211.582031 263.941406 212.550781 264.355469 C 211.78125 266.667969 209.457031 273.574219 208.472656 276.109375 C 208.414062 276.265625 208.359375 276.433594 208.300781 276.609375 " fill-opacity="1" fill-rule="nonzero"/><path fill="#301012" d="M 186.449219 280.371094 C 186.5 280.378906 186.589844 280.386719 186.707031 280.386719 C 187.613281 280.386719 190.285156 280 191.328125 275.605469 C 191.386719 275.367188 191.238281 275.125 190.996094 275.070312 C 190.757812 275.011719 190.519531 275.164062 190.460938 275.402344 C 189.402344 279.863281 186.660156 279.507812 186.546875 279.488281 L 186.472656 279.484375 C 185.554688 279.484375 184.933594 279.226562 184.574219 278.699219 C 183.933594 277.753906 184.242188 276.058594 184.539062 275.089844 L 184.550781 275.058594 L 184.707031 274.59375 L 184.726562 274.476562 L 192.195312 250.433594 C 192.265625 250.203125 192.132812 249.953125 191.902344 249.878906 C 191.664062 249.804688 191.417969 249.9375 191.34375 250.171875 L 183.75 274.625 C 183.46875 275.484375 182.867188 277.769531 183.839844 279.199219 C 184.367188 279.976562 185.242188 280.367188 186.449219 280.371094 " fill-opacity="1" fill-rule="nonzero"/><path fill="#301012" d="M 193.894531 274.046875 L 195.445312 268.765625 C 196.394531 265.523438 199.875 262.890625 203.203125 262.890625 C 204.738281 262.890625 205.996094 263.457031 206.753906 264.480469 C 207.527344 265.539062 207.691406 266.96875 207.207031 268.507812 L 205.550781 273.789062 C 204.535156 277.03125 201.078125 279.671875 197.84375 279.671875 C 196.378906 279.671875 195.164062 279.121094 194.417969 278.125 C 193.621094 277.0625 193.4375 275.613281 193.894531 274.046875 Z M 197.84375 280.5625 C 201.4375 280.5625 205.277344 277.644531 206.398438 274.054688 L 208.058594 268.773438 C 208.625 266.957031 208.417969 265.246094 207.46875 263.957031 C 206.542969 262.695312 205.027344 262 203.203125 262 C 199.507812 262 195.640625 264.921875 194.589844 268.515625 L 193.039062 273.796875 C 192.503906 275.636719 192.738281 277.367188 193.707031 278.660156 C 194.625 279.886719 196.09375 280.5625 197.84375 280.5625 " fill-opacity="1" fill-rule="nonzero"/><path fill="#301012" d="M 168.484375 275.082031 L 169.722656 270.863281 L 170.324219 269.019531 C 171.5625 266.148438 174.738281 263.925781 177.796875 263.925781 C 179.332031 263.925781 180.589844 264.492188 181.34375 265.515625 C 182.121094 266.574219 182.28125 268.003906 181.800781 269.542969 L 180.144531 274.824219 C 179.125 278.066406 175.667969 280.707031 172.433594 280.707031 C 170.972656 280.707031 169.753906 280.15625 169.007812 279.160156 C 168.214844 278.097656 168.027344 276.648438 168.484375 275.082031 Z M 164.441406 285.640625 L 164.578125 285.664062 C 164.765625 285.664062 164.941406 285.542969 165 285.355469 L 167.464844 277.796875 C 167.605469 278.492188 167.878906 279.136719 168.296875 279.695312 C 169.214844 280.921875 170.683594 281.597656 172.433594 281.597656 C 176.027344 281.597656 179.867188 278.679688 180.992188 275.089844 L 182.648438 269.808594 C 183.214844 267.992188 183.007812 266.28125 182.058594 264.992188 C 181.132812 263.730469 179.621094 263.035156 177.796875 263.035156 C 175.441406 263.035156 173.023438 264.222656 171.304688 266.007812 L 172.441406 262.519531 L 171.597656 262.242188 L 169.488281 268.710938 C 169.371094 268.988281 169.265625 269.265625 169.179688 269.550781 L 168.871094 270.609375 L 164.15625 285.082031 C 164.078125 285.316406 164.207031 285.566406 164.441406 285.640625 " fill-opacity="1" fill-rule="nonzero"/><g clip-path="url(#d001435301)"><path fill="#301012" d="M 163.203125 289.058594 C 162.96875 288.988281 162.726562 289.121094 162.65625 289.359375 C 161.375 293.773438 158.875 293.449219 158.769531 293.4375 L 158.695312 293.429688 C 157.585938 293.429688 156.839844 293.152344 156.476562 292.601562 C 155.832031 291.621094 156.503906 290.027344 156.511719 290.011719 C 156.609375 289.789062 156.503906 289.527344 156.28125 289.429688 C 156.054688 289.332031 155.792969 289.433594 155.699219 289.660156 C 155.660156 289.742188 154.824219 291.703125 155.730469 293.085938 C 156.261719 293.902344 157.25 294.316406 158.664062 294.320312 C 158.714844 294.328125 158.8125 294.335938 158.945312 294.335938 C 159.824219 294.335938 162.261719 293.925781 163.507812 289.609375 C 163.578125 289.371094 163.441406 289.125 163.203125 289.058594 " fill-opacity="1" fill-rule="nonzero"/></g><path fill="#301012" d="M 163.078125 262.851562 L 163.117188 262.851562 C 163.261719 262.863281 163.285156 262.90625 163.296875 262.921875 C 163.367188 263.042969 163.332031 263.339844 163.246094 263.628906 C 162.925781 263.441406 162.800781 263.21875 162.8125 263.058594 C 162.824219 262.929688 162.925781 262.851562 163.078125 262.851562 Z M 151.941406 263.144531 C 152.351562 262.917969 152.722656 262.867188 153.074219 263.003906 C 153.933594 263.332031 154.539062 264.664062 154.695312 265.136719 C 154.707031 265.1875 155.730469 268.5 157.261719 272.605469 C 156.464844 273.777344 155.679688 274.929688 154.980469 275.960938 C 152.363281 279.683594 149.851562 279.640625 149.824219 279.632812 C 149.578125 279.625 149.371094 279.808594 149.355469 280.054688 C 149.34375 280.300781 149.53125 280.511719 149.773438 280.523438 L 149.835938 280.523438 C 150.285156 280.523438 152.976562 280.351562 155.710938 276.464844 C 156.414062 275.433594 157.054688 274.492188 157.644531 273.625 C 158.1875 275.042969 158.785156 276.53125 159.417969 277.992188 C 160.410156 280.273438 162.011719 280.523438 163.644531 280.523438 C 163.878906 280.523438 164.113281 280.519531 164.34375 280.515625 C 164.578125 280.507812 164.816406 280.503906 165.058594 280.503906 C 165.304688 280.503906 165.503906 280.304688 165.503906 280.058594 C 165.503906 279.8125 165.304688 279.613281 165.058594 279.613281 C 164.8125 279.613281 164.566406 279.621094 164.324219 279.625 C 162.535156 279.664062 161.128906 279.691406 160.234375 277.640625 C 159.519531 275.992188 158.851562 274.308594 158.257812 272.726562 C 161.746094 267.601562 163.117188 265.550781 163.644531 264.738281 C 163.898438 264.804688 164.1875 264.851562 164.503906 264.878906 C 165.929688 265.007812 167.503906 264.644531 168.171875 264.03125 C 168.492188 263.738281 168.5625 263.4375 168.5625 263.238281 C 168.5625 262.992188 168.363281 262.789062 168.117188 262.789062 C 167.871094 262.789062 167.671875 262.992188 167.671875 263.238281 C 167.671875 263.25 167.652344 263.300781 167.570312 263.375 C 167.144531 263.765625 165.84375 264.105469 164.582031 263.996094 C 164.402344 263.976562 164.238281 263.953125 164.085938 263.925781 C 164.203125 263.5625 164.339844 262.929688 164.058594 262.460938 C 163.933594 262.257812 163.683594 262 163.183594 261.964844 C 162.523438 261.910156 161.980469 262.355469 161.929688 262.984375 C 161.886719 263.492188 162.15625 264.023438 162.808594 264.398438 C 161.980469 265.652344 159.945312 268.660156 157.875 271.703125 C 156.472656 267.902344 155.558594 264.917969 155.542969 264.871094 C 155.515625 264.78125 154.820312 262.726562 153.398438 262.175781 C 152.785156 261.9375 152.148438 262.007812 151.503906 262.375 C 151.289062 262.492188 151.214844 262.765625 151.335938 262.980469 C 151.457031 263.195312 151.730469 263.269531 151.941406 263.144531 " fill-opacity="1" fill-rule="nonzero"/><path fill="#301012" d="M 242.09375 287.304688 L 232.328125 281.804688 L 232.328125 286.535156 L 145.265625 286.535156 L 142.644531 282.757812 L 137.382812 282.757812 L 140 286.535156 L 138.320312 286.535156 L 135.699219 282.757812 L 130.433594 282.757812 L 133.054688 286.535156 L 130.578125 286.535156 L 130.578125 288.078125 L 133.355469 288.078125 L 130.433594 292.292969 L 135.699219 292.292969 L 138.625 288.078125 L 140.300781 288.078125 L 137.382812 292.292969 L 142.644531 292.292969 L 145.570312 288.078125 L 232.328125 288.078125 L 232.328125 292.808594 L 242.09375 287.304688 " fill-opacity="1" fill-rule="nonzero"/></svg>